<?xml version="1.0" encoding="utf-8"?>
<!-- Generator: Adobe Illustrator 24.3.2, SVG Export Plug-In . SVG Version: 6.00 Build 0)  -->
<svg version="1.1" id="Layer_1" xmlns="http://www.w3.org/2000/svg" xmlns:xlink="http://www.w3.org/1999/xlink" x="0px" y="0px"
	 viewBox="0 0 290 76" style="enable-background:new 0 0 290 76;" xml:space="preserve">
<style type="text/css">
	.st0{clip-path:url(#SVGID_2_);}
	.st1{fill:#684287;}
	.st2{fill:#A6CE39;}
	.st3{fill:#D2E288;}
	.st4{fill:#FFFFFF;}
</style>
<g>
	<g>
		<defs>
			<rect id="SVGID_1_" width="290" height="76"/>
		</defs>
		<clipPath id="SVGID_2_">
			<use xlink:href="#SVGID_1_"  style="overflow:visible;"/>
		</clipPath>
		<g class="st0">
			<path class="st1" d="M15.9,11.5c1.2-0.9,2.7-0.9,4.1-1h1.1h0.2l0.1-0.6l0.2-1c0.7-2.1,2.5-3.2,4.6-4.1c1.8-0.7,3.6-1.4,5.6-1.7
				h0.8c-0.1,0-0.1-0.1-0.1-0.1c-2.9-0.7-6.1-0.7-9-0.4c-0.4,0.1-0.9,0.5-1.2,0.7c-2.6,1.1-6.6,0.2-9.3,0.3
				c-1.4,0.1-3.9,0.3-4.4,1.9C8.6,5.8,8.5,5.9,8.5,6.2L9,30.6c0.6-0.3,1.1-0.7,1.7-1c-0.1-1,0.1-2.1,1-2.8c-0.8-1.1-1-2.5-0.2-3.7
				l0.4-0.5l0.1-0.1c-0.7-1.5-0.2-3,1.1-4.1l0.6-0.4c-0.3-1.3,0.2-2.5,1.3-3.3C14.5,13.7,14.8,12.3,15.9,11.5z"/>
			<path class="st1" d="M33.2,19.5c8.4-6.8,20.3-10.8,31.5-10.1c0-0.1-0.1-0.2-0.1-0.2c-0.1-1.9-0.3-5.5-3.1-5.2
				c-2.5,0.3-2.4,3.6-4.1,4.8c-1.5,1.1-2.7-0.5-3.3-1.7c-2.2-3.9-7.4-4.8-11.7-4.4C39.7,3,38.1,4.1,36.5,6l-0.5,0.6l0.2-0.5L36,5.9
				c-0.7-1-1.4-1.9-2.4-2.5c-3,1.3-6.5,2.4-8.8,4.7c-0.6,0.6-0.7,1.3-0.7,2.1c0.1,0,0.2,0,0.3-0.1c0.3-0.8,0.7-1.6,1.3-2.2
				c1.4-1.4,3.5-1.7,5.2-2.5l2.5-1.2l0.1,0.1c-0.6,0.7-1.2,1.5-2,2.1c-1.3,1-3.3,1.4-4.3,2.7c-0.2,0.3-0.4,0.7-0.5,1.1
				c0.9,0.2,1.5,0.6,1.5,1c0,0.7-1.4,1.3-3.1,1.3c-0.1,0-0.1,0-0.2,0c0.7,0.3,1.1,0.6,1.1,1c0,0.8-1.7,1.5-3.7,1.5
				c-0.2,0-0.3,0-0.5,0c1.5,0.3,2.6,0.9,2.6,1.5c0,0.9-1.9,1.7-4.4,1.7c-0.2,0-0.3,0-0.5,0c1.4,0.2,2.4,0.8,2.4,1.4
				c0,0.9-1.8,1.6-4,1.6c-0.2,0-0.3,0-0.5,0c1.1,0.2,1.9,0.6,1.9,1.1c0,0.6-1.1,1.1-2.6,1.2l-0.1,0.1c1.1,0.2,1.8,0.6,1.8,1.1
				c0,0.5-0.6,0.9-1.5,1c1,0.2,1.6,0.6,1.6,1.1c0,0.2-0.1,0.4-0.3,0.5c0.8-0.1,1.7-0.1,2.5-0.1c1.7,0.1,3.4,0.3,5,0.7
				C27.9,25.1,30.1,21.9,33.2,19.5z"/>
			<path class="st1" d="M17.9,13.9L17.9,13.9L17.9,13.9L17.9,13.9z"/>
			<path class="st1" d="M20.7,15.1c-0.5-0.1-0.9-0.2-1.1-0.3c0.1,0.1,0.2,0.2,0.2,0.3c0.1,0,0.2,0,0.3,0
				C20.2,15.1,20.4,15.1,20.7,15.1z"/>
			<path class="st1" d="M16.3,21.3c-0.1,0-0.2-0.1-0.3-0.1l-0.1,0.1c0.1,0,0.1,0,0.1,0C16.1,21.3,16.2,21.3,16.3,21.3z"/>
			<path class="st1" d="M72.5,46.8c-3.2,2.1-6.1,5.4-9.9,6.2c0.3,1.2,0.6,2.5,0.7,3.7c0.5,0.1,0.9,0.4,1.2,0.9
				c0.2-0.9,1-1.6,1.8-1.6c0.5,0,0.9,0.2,1.3,0.6c0.3-1,1.1-1.7,2.1-1.7c0.5,0,1,0.2,1.4,0.6c0.1-1.4,1.1-2.4,2.4-2.4
				c0.6,0,1.2,0.3,1.6,0.8c0.1-1.5,1.3-2.7,2.6-2.7c0.5,0,1,0.2,1.4,0.5c0.1-1.1,1-2,2.1-2c0.2,0,0.3,0.1,0.5,0.1
				c0-0.1-0.1-0.2-0.1-0.2c0-0.6,0.3-1,0.7-1.4c0.6-1.3,1-2.6,1.3-4.1l0.6-4.6c0.1-0.3,0.2-0.6,0.3-0.9c0.4-1,1.1-2.2,1.5-2.9l0.2-2
				c-0.1-0.1-0.1-0.1-0.2-0.1c-0.9-0.4-1.8-0.6-2.7-0.7C81.6,38.6,77.5,43.5,72.5,46.8z"/>
			<path class="st1" d="M85.4,41.4l-0.2,1.5l0.8-6.6l-0.1,0.4L85.4,41.4z"/>
			<path class="st1" d="M86.6,34c0.6,5.6,1.9,12.1-0.5,17.5c-0.3,0.8-1,1.1-1.5,1.8c-1.8,2.1-4.3,6.9-7.8,5.8L76,60l-0.5,0.3
				c-0.3,0.2-0.8,0.4-1.2,0.5l-0.6,0.1l-0.3-0.1c-0.9,1.1-2.5,1.7-4,1.2L69,61.8l-0.1-0.1c-1.4,1.3-3.6,1.3-5.1,0.1
				c-0.3,0.2-0.6,0.3-0.9,0.3c-0.3,1.3-0.7,2.6-1.3,3.8l14.5,0.4c3.3,0.1,6.6-0.1,9.5-1.8c3.9-2.3,3.4-8.7,3.6-12.1l-0.1-12.6
				C89,37.7,88.6,35.3,86.6,34z"/>
			<path class="st1" d="M81.9,18.7c1.6,3,2.3,6.3,2.2,9.9c-0.1,1.2-0.2,2.4-0.5,3.5c2.3-1.3,4.3-2.4,5.2-5.1
				c0.9-2.5-0.1-6.2-2.6-7.6C84.6,18.4,83.4,18.6,81.9,18.7z"/>
			<path class="st1" d="M74.7,12.3l0.1,0.1l0.1,0.1h0.1l1.5,0.4l1.5,1l1.4,1.2c0.3,0.3,0.6,0.7,0.9,1.1c0.2-0.1,0.3-0.2,0.5-0.2
				c2.6-1.4,6.3-3.3,6.8-6.4c0.4-2.9-2.3-5-4.9-5.7c-4.5-1.1-10.1,1.1-11,5.7c-0.1,0.5-0.3,0.9-0.6,1.2l2.2,0.6L74.7,12.3z"/>
			<path class="st1" d="M56.1,4.8c-0.1-0.1-0.1-0.2-0.2-0.2C55.9,4.7,56.1,4.8,56.1,4.8z"/>
			<path class="st2" d="M42.9,28.1l-0.2-0.3c-0.7-1.7,0.9-2.3,2.4-2.7c0.2-0.3,0.6-0.6,0.7-0.7c4.1-4.6,9.2-8.2,14.3-10.3
				c-7.8,0.9-16.3,4.7-23,10.6c-2.1,1.8-3.8,3.8-5.2,5.8c2.7,1.2,5.4,2.6,8,4.1c0.2-0.5,0.3-1,0.5-1.5C41,31.4,41.9,29.7,42.9,28.1z
				"/>
			<path class="st2" d="M70,42.2c6.4-5.6,9.8-12.4,9.2-18c0-0.2-0.1-0.3-0.1-0.5c-0.9,3.3-2.8,6.8-5.9,10.2
				c-0.2,0.2-0.5,0.5-0.7,0.7c-0.1,0.6-0.3,1.2-0.5,1.8c-0.2,0.6-0.9,0.9-1.5,0.9c-0.1,0-0.1-0.1-0.2-0.1c-1,0.9-1.6,1.8-5.2,4.6
				c-0.1,0.1-0.2,0.3-0.3,0.4c-0.7,0.9-2.2,1.7-3.3,1c-0.1-0.1-0.1-0.1-0.2-0.1c-1.4,0.7-2.7,1.3-4.1,1.8c1.2,1,2.3,2.2,3.2,3.4
				c1.3-0.9,2.7-1.5,4.2-2.2C66.6,45,68.4,43.6,70,42.2z"/>
			<path class="st2" d="M7.6,45.1C8,49.9,11.9,56,18.8,60.4c12.4,7.9,27.1,8,32.4,3.5c1.3-1.1,1.9-2.3,2.1-3.9
				c-1.9-0.2-4.1-0.5-5.5-1.9c-0.7-0.7-0.5-1.9,0.2-2.6c0.8-0.9,1.8-0.9,2.9-0.6c-0.7,0.4-2.1,0.7-2.2,1.7v0.2V57v0.2v-0.1l0.1,0.1
				l0.2,0.1c0.2,0.1,0.4,0.2,0.6,0.2c0-0.1-0.1-0.2-0.1-0.2c0.1-1,0.7-1.7,1.6-1.7c0.8,0,1.4,0.7,1.5,1.6c0.1-0.2,0.2-0.3,0.3-0.4
				c-1.3-4.3-5.4-9.1-11.4-12.8c-6.1-4-12.6-6-18.3-6.7c-0.5,1.7-1.7,3.8-3.8,3.4c-0.5-0.1-0.9-0.5-1.2-0.9l-0.2-0.3l-0.2,0.1
				c-1.9,0.6-4-0.1-5.2-1.4c-1.1,0.5-2.2,1-3,1.7C8.2,41.3,7.4,43,7.6,45.1z"/>
			<path class="st2" d="M19.9,37.3L19.9,37.3c1.1,0,2.1,0.3,2.5,0.7c0.2-0.2,0.4-0.5,0.6-0.7c-0.9-0.1-1.8-0.2-2.7-0.2
				C20.2,37.1,20,37.3,19.9,37.3z"/>
			<path class="st2" d="M17.5,37.8c-0.7,0-1.4-0.1-2-0.3h-0.1c0.5,0.3,1.1,0.5,1.7,0.4c0.2,0,0.5-0.1,0.7-0.1c0,0,0,0,0.1-0.1
				C17.7,37.8,17.6,37.8,17.5,37.8z"/>
			<path class="st2" d="M20.2,39.4c0.1,0,0.1,0,0.2-0.1C20.3,39.3,20.3,39.3,20.2,39.4C20.2,39.3,20.2,39.4,20.2,39.4z"/>
			<path class="st2" d="M18,39.3L18,39.3L18,39.3z"/>
			<path class="st3" d="M20.4,65.4c8.9,3.3,19,9,28.7,5.6c3.7-1.3,7.4-4.8,8.1-8.6c0.1-0.3,0.1-0.6,0.1-0.9
				c-0.7-0.2-1.3-0.5-1.9-0.9c-0.5-0.3-0.7-0.5-1.4-0.5c-0.3,0-0.5-0.1-0.8-0.1c-0.2,1.5-0.9,2.8-2.1,3.9c-5.3,4.5-20,4.4-32.4-3.5
				C11.9,56,7.9,49.9,7.6,45.1c-0.1-2.1,0.6-3.8,2.2-5.1c0.8-0.7,1.8-1.3,3-1.7c-0.5-0.6-1-1.3-1.1-2.1c-0.1-0.3-0.1-0.6-0.1-0.9
				c-3.9,2.1-6.6,5.5-7.2,10c-0.5,5,1.8,10,5.7,13.2c3.4,2.8,7.2,3.7,11.3,4.7v0.6c-2.4,0-4.8,0.2-7.2-0.3c-1.1-0.3-2.3-0.7-3.4-1.2
				c1.4,1.2,3,2.3,4.7,3.4c1.2,0.7,2.4,1.4,3.6,2.1c3.5,1.9,7.3,3.3,10.9,4.3c-0.7-0.3-1.4-0.7-2.1-1L20.4,65.4z"/>
			<path class="st3" d="M41.6,43.8c6,3.8,10.1,8.6,11.4,12.8c-0.1,0.1-0.2,0.3-0.3,0.4c-0.1-0.9-0.7-1.6-1.5-1.6
				c-0.9,0-1.6,0.7-1.6,1.7c0,0.1,0,0.2,0.1,0.2c1,0.3,2.1,0.5,3.1,0.6c0.9,0.1,1.7-0.3,2.6-0.1c0.7,0.2,1.4,0.6,2.1,1l0.2,0.1
				c0-3.5-1-6.9-3.9-9.2l-2.1-1.2L32,37.5c-4.8-2.6-10.5-5-16-3.9c-0.1,0.1-0.1,0.3-0.2,0.4c-0.3,0.5-1.5,0.7-1.7,1.4
				c-0.2,0.9,0.4,1.7,1.2,2.2h0.1c0.6,0.2,1.3,0.3,2,0.3c0.1,0,0.2,0,0.3,0c0,0,0,0-0.1,0.1c0.6-0.1,1.3-0.2,1.7,0.5
				c0.2,0.3,0.2,1,0.7,1c0.1,0,0.2,0,0.3,0c0.8-0.1,1.4-0.7,2-1.3c-0.3-0.4-1.3-0.7-2.4-0.7h-0.1c0.1-0.1,0.2-0.1,0.3-0.2
				c0.9,0,1.8,0.1,2.7,0.2c0,0,0,0,0-0.1l0.2,0.1c0.1,0,0.1,0,0.1,0C29,37.9,35.5,39.9,41.6,43.8z"/>
			<path class="st3" d="M70.5,58.4L70.5,58.4h0.1H70.5L70.5,58.4z"/>
			<path class="st1" d="M72.2,24L72.2,24L72.2,24z"/>
			<path class="st1" d="M62.2,38.2l0.2,0.3l0.1,0.2l0.1-0.3l0.4-1.1l1.1-4.5c0.2-1.3-0.6-2.9,0.6-3.8c1.8-1.4,4.3,1.1,5.3,2.3
				l0.2,0.3l0.3-1l0.5-5l-0.1-0.9c0-1-0.3-2.4,0.9-2.9c0.6-0.2,1.3,0,1.7,0.3c0.3,0.2,0.6,0.5,0.8,0.7c0.1,0.2,0.3,0.5,0.5,0.6
				l-0.1-6.7l-0.2-4.5c-1.6,0.6-4.2,1.6-5.7,2.2c-0.7,0.3-1.5,0.6-2.3,1c-1.5,0.6-3,1.1-4.5,1.5c1.2,1.3,2.1,2.9,2.5,4.6
				c0.3,1.3-1.1,1.6-2,1.3c-1.1-0.4-1.9-0.9-3.3-1h-1.3L56,22.2c0.9,1,2.1,2.8,1.9,4.1c-0.3,1.9-2.2,1.2-3.4,1.1
				c-0.8-0.1-1.6-0.1-2.4,0l-1.3,0.2l-2.1,0.5l0.1,0.1l2.5,2.2l0.7,1c0.9,2.4-2.1,2.5-3.5,2.8c-1.1,0.3-2.7,1-2.6,2.3
				c0,0.6,0.2,1.1,0.5,1.5c1.9,1.1,4,2.1,5.9,3.3c0.3,0.1,0.7,0.1,1,0.1l0.9-0.1l0.8-0.2l0.3-0.2l0.1-0.2l0.2-0.9
				c0.3-1.7,0.4-5.3,3-5.2C60.3,34.8,61.4,36.9,62.2,38.2z"/>
			<path class="st3" d="M43.3,28.6l-0.4-0.6c-1,1.5-1.8,3.3-2.5,4.9c-0.2,0.5-0.4,1-0.5,1.5c0,0,0.1,0,0.1,0.1
				c0.5,0.3,0.9,0.5,1.4,0.8c0.1-0.3,0.2-0.6,0.3-0.9c0.5-1.3,1.5-2.4,2.7-3.1l0.9-0.5l0.1-0.1l0.2-0.1l-0.2-0.2L43.3,28.6z"/>
			<path class="st3" d="M59.6,41.3c-0.2,1.1-0.6,2.3-1.5,3c-0.3,0.2-0.6,0.3-0.9,0.5c0.1,0.1,0.1,0.1,0.2,0.1
				c1.4-0.5,2.7-1.1,4.1-1.8C60.6,42.6,60.1,42,59.6,41.3z"/>
			<path class="st3" d="M79.1,23.7c0,0.2,0.1,0.3,0.1,0.5c0.6,5.6-2.9,12.4-9.2,18c-1.7,1.5-3.4,2.8-5.3,3.9
				c1.8-0.7,3.7-1.5,5.3-2.5c4.6-2.7,9-7.1,10.6-12.3c1.4-4.5,1-8.8-0.9-13c-0.3-0.5-0.3-0.7-0.6-1.2c-0.3-0.5-0.5-1-0.8-1.4
				l-1.1-1.3L76,13.5l-0.1-0.1l-1-1c0.7,4,2.6,10,2.2,14.4c0,0.2,0,0.5-0.1,0.7c-0.1,0.4-0.2,0.7-0.2,1.1c-0.3,0.9-1.5-0.1-1.7-0.3
				l-0.9-1.5l-0.4-0.7L73.7,26c-0.1,0.5-0.1,1-0.1,1.4c0,0.1,0,0.2,0,0.3c-0.2,2.3-0.5,4.6-1,6.8c0.2-0.2,0.5-0.5,0.7-0.7
				C76.3,30.5,78.3,27,79.1,23.7z"/>
			<path class="st3" d="M37,24.6c6.6-5.9,15.2-9.6,23-10.6c-5,2.2-10.2,5.7-14.3,10.3c-0.1,0.2-0.4,0.5-0.7,0.7h0.1
				c0.7-0.2,1.4-0.2,1.8-0.3l4-0.7l0.7-0.1l1.4-0.1c-0.2-0.3-0.6-0.5-1-0.8c-0.8-0.6-1.5-1.3-0.6-2.2c0.9-0.9,2.3-1.1,3.5-1.4
				c0.9-0.2,1.8-0.3,2.6-0.3c0.5,0,0.9,0,1.3,0c0.2,0,0.5,0,0.7,0l1.4,0.3L61,19.4l-0.5-0.6c-0.2-0.3-0.5-0.5-0.9-0.7
				c-0.5-0.3-0.9-0.6-1.1-1c-0.3-0.6-0.1-1.4,0.6-1.5l14.9-3.3l-0.9-0.2L72.8,12l-6-0.7c-9.2-0.1-18.1,2.5-25.7,7.3
				c-3.6,2.3-7,5-9.6,8.4l-1.6,2.7c0.6,0.2,1.3,0.5,1.9,0.7C33.3,28.4,35,26.5,37,24.6z"/>
			<path class="st3" d="M70.4,37.3c-0.1-0.1-0.2-0.1-0.3-0.1c-0.7-0.3-0.9-1.3-1.3-2c-0.2-0.3-0.3-0.7-0.6-1
				c-0.2-0.3-0.3-0.5-0.6-0.7c0,0,0,0.1-0.1,0.1l-0.2,1.4V35c-0.3,1.6-0.7,3.6-1.4,5.3c-0.2,0.6-0.5,1.1-0.9,1.5
				C68.8,39.1,69.5,38.2,70.4,37.3z"/>
			<path class="st3" d="M15.7,21.1L15.7,21.1l-0.1-0.1L15.7,21.1z"/>
			<path class="st3" d="M17.3,17.7L17.3,17.7L17.3,17.7L17.3,17.7z"/>
			<path class="st3" d="M19.2,22.5c0-0.5-0.7-0.9-1.9-1.1c0.2,0,0.3,0,0.5,0c2.2,0,4-0.7,4-1.6c0-0.6-1-1.2-2.4-1.4
				c0.2,0,0.3,0,0.5,0c2.4,0,4.4-0.7,4.4-1.7c0-0.7-1-1.3-2.6-1.5c0.2,0,0.3,0,0.5,0c2.1,0,3.7-0.7,3.7-1.5c0-0.4-0.5-0.8-1.1-1
				c0.1,0,0.1,0,0.2,0c1.7,0,3.1-0.6,3.1-1.3c0-0.5-0.6-0.9-1.5-1c0.1-0.4,0.3-0.8,0.5-1.1c1-1.3,2.9-1.8,4.3-2.7
				c0.8-0.6,1.4-1.4,2-2.1l-0.1-0.1l-2.4,1.3c-1.7,0.7-3.8,1.1-5.2,2.5c-0.6,0.6-0.9,1.4-1.3,2.2c-0.1,0-0.2,0-0.3,0.1
				c-0.1,1-0.1,1.9-1.1,2.5c-1.3,0.8-3,0.4-4.5,0.8c-0.1,0-0.2,0.1-0.2,0.1l0.2,0.2l0.1,0.1c0.3,0.2,0.6,0.5,0.9,0.8
				c0.3,0.2,0.7,0.3,1.1,0.3c-0.2,0-0.5,0-0.7,0c-0.1,0-0.2,0-0.3,0c0.3,0.6,0.3,1.3-0.5,1.9c-0.3,0.3-1,0.3-1.5,0.5
				c0.2,0.3,0.4,0.6,0.5,0.9h0.1c0,0,0,0-0.1,0c0.2,0.5,0.2,1-0.2,1.7c-0.3,0.5-0.9,0.6-1.4,0.9L16,21.2l-0.1,0.1
				c0.1,0,0.2,0.1,0.3,0.1c-0.1,0-0.2,0-0.3,0c-0.1,0-0.1,0-0.1,0l0.2,0.2c0.3,0.5,0.8,1.1,0.7,1.7c0,0.2-0.1,0.4-0.2,0.6
				C18.1,23.7,19.2,23.2,19.2,22.5z"/>
			<path class="st3" d="M18.5,27.1c0-0.5-0.7-0.9-1.6-1.1c0.9-0.2,1.5-0.6,1.5-1c0-0.5-0.7-0.9-1.8-1.1c-0.2,0.3-0.6,0.6-0.9,0.9
				L14.9,25l-0.1,0.1l0.3,0.3c0.8,0.7,1.7,1.5,1.4,2.4c0.5-0.1,1.1-0.1,1.6-0.2C18.4,27.4,18.5,27.3,18.5,27.1z"/>
			<path d="M91.4,52.4l-0.8-12.6c-0.2-1.7-0.5-3.4-1.5-4.8c-0.3-0.4-0.6-0.8-1-1.1c-1-0.7-2-1.3-3.1-1.4c0.8-0.4,1.5-0.9,2.2-1.3
				c0.7-0.4,1.3-1.1,1.9-1.9c0.4-0.6,0.8-1.3,1-1.8c1.2-2.8,0.7-5.9-1-8.2c-1-1.3-2.4-2.3-4.1-2.9c1.5-0.9,3-2.1,4.1-3.5
				c0.2-0.3,0.5-0.6,0.6-0.9c1.9-3.5,0.5-7.6-2.7-9.9c-4.2-3.1-9.9-2.7-14.3-0.3c-1.3,0.7-2.5,1.7-3.5,2.8c-0.3,0.4-0.6,0.8-0.8,1.2
				C68.3,6,68.3,6,68.2,6.2c-0.1-0.3-0.2-0.7-0.3-1C67.6,4,67.1,2.9,66.2,2C66.1,1.9,66,1.9,66,1.8c-2.2-2-5.6-1.9-7.7,0
				c-0.4,0.3-0.7,0.7-1.1,1.2l-1,1.7v0.1c-0.1-0.1-0.1-0.2-0.2-0.2c-0.9-1-1.8-1.8-3.1-2.4c-0.2-0.1-0.5-0.2-0.7-0.3
				c-3.8-1.5-8.7-1.9-12.5,0c-0.5,0.2-1,0.5-1.4,0.9c-0.8,0.6-1.9,1.1-2.3,1.8c-0.1-0.2-0.3-0.4-0.5-0.7c-0.2-0.3-0.5-0.6-0.8-0.9
				h-0.1c-0.3-0.3-0.9-0.6-1.3-0.8C33,2.1,32.8,2,32.5,1.9c-0.4-0.2-0.9-0.3-1.4-0.4C28.8,1,25,0.2,22.6,1c-0.5,0.2-1,0.7-1.6,0.7
				L10.5,1.5C8.6,1.8,6,3.1,5.8,5.2L5.2,33.5c-3.1,3-5,7-5.2,11.5c-0.2,6.1,3,12,8.1,15.6c0.9,0.6,1.9,1.2,2.9,1.7
				c1.1,0.5,2.2,0.9,3.4,1.2c2.3,0.6,4.8,0.3,7.2,0.3v-0.6c-4.2-1-8-1.9-11.3-4.7c-3.9-3.1-6.2-8.2-5.7-13.2c0.5-4.5,3.3-7.9,7.2-10
				c0,0.3,0,0.6,0.1,0.9c0.2,0.8,0.6,1.5,1.1,2.1c1.3,1.4,3.3,2,5.2,1.4l0.2-0.1l0.2,0.3c0.3,0.4,0.7,0.8,1.2,0.9
				c2.2,0.3,3.3-1.7,3.8-3.4l-0.1-0.1l-0.2-0.1c0,0,0,0,0,0.1c-0.2,0.2-0.4,0.5-0.6,0.7c-0.5,0.6-1.1,1.2-2,1.3
				c-0.1,0-0.1,0.1-0.2,0.1h-0.1c-0.5-0.1-0.5-0.7-0.7-1c-0.4-0.7-1-0.6-1.7-0.5c-0.2,0.1-0.5,0.1-0.7,0.1c-0.5,0.1-1.1-0.1-1.7-0.4
				c-0.8-0.5-1.4-1.3-1.2-2.2c0.1-0.6,1.3-0.8,1.7-1.4c0.1-0.1,0.1-0.3,0.2-0.4c5.6-1.1,11.2,1.3,16,3.9l19.6,11.1l2.1,1.2
				c2.9,2.3,4,5.8,3.9,9.2L57.5,59c-0.7-0.3-1.3-0.8-2.1-1c-0.9-0.2-1.7,0.1-2.6,0.1c-1-0.1-2.1-0.2-3.1-0.6
				c-0.2-0.1-0.4-0.1-0.6-0.2l-0.2-0.1l-0.1-0.1v0.1V57v-0.2v-0.2c0.1-1,1.4-1.3,2.2-1.7c-1.1-0.3-2.1-0.3-2.9,0.6
				c-0.6,0.7-1,1.9-0.2,2.6c1.4,1.4,3.5,1.7,5.5,1.9c0.3,0,0.5,0.1,0.8,0.1c0.6,0.1,0.8,0.2,1.4,0.5c0.6,0.4,1.3,0.8,1.9,0.9
				c-0.1,0.3-0.1,0.6-0.1,0.9c-0.7,3.8-4.5,7.4-8.1,8.6c-9.7,3.4-19.9-2.4-28.7-5.6l7.8,5.6c0.7,0.3,1.4,0.7,2.1,1
				c4,1.9,8.2,3.3,12.6,3.8c6.2,0.8,12.7-1.9,16.6-6.5l16.7,0.1c3.9-0.1,7.8-0.4,11.1-2.6c0.1-0.1,0.2-0.1,0.3-0.2l0.1-0.1
				C91.8,63.3,91.4,57.1,91.4,52.4z M86.1,33.7c0.1,0.1,0.1,0.1,0.2,0.1l-0.2,2L86,36.4l-0.7,6.5l-0.1,3.4l-0.1,0.2L84,49.6
				c-0.2,0.4-0.5,0.7-0.7,1c-1,1-1.9,2.2-3,3.3c-0.6,0.6-1.3,1.3-2.1,1.6l-0.2,0.1h-0.1l-0.1-0.1l-0.1-0.1C77,54.7,76,54.2,75,54.9
				l-0.6,0.7l-0.6,1.2l-0.1,0.1l-0.3-0.1l-0.9-0.2c-1.3,0-1.6,0.7-2.1,1.6c-0.1,0.1-0.1,0.2-0.1,0.3c-0.5-0.2-1-0.7-1.6-0.7
				c-1.3-0.2-1.7,0.6-2.2,1.5c-0.5,0.9-1.3-0.8-1.7-0.9c-0.6-0.3-1.1-0.3-1.5-0.1c0-0.5,0-1-0.1-1.5c-0.1-1.3-0.3-2.5-0.7-3.7
				c3.8-0.8,6.7-4.1,9.9-6.2c5-3.3,9.1-8.2,10.8-13.8C84.3,33.2,85.2,33.3,86.1,33.7z M70.6,58.4L70.6,58.4L70.6,58.4z M86.2,19.3
				c2.5,1.4,3.4,5.1,2.6,7.6c-0.9,2.7-2.8,3.8-5.2,5.1c0.3-1.1,0.5-2.3,0.5-3.5c0.2-3.6-0.6-6.8-2.2-9.9
				C83.4,18.6,84.6,18.4,86.2,19.3z M71.5,9.4c0.9-4.6,6.5-6.8,11-5.7c2.7,0.7,5.3,2.9,4.9,5.7c-0.5,3.2-4.1,5-6.8,6.4
				c-0.1,0.1-0.3,0.2-0.5,0.2c-0.3-0.3-0.5-0.7-0.9-1.1L78,13.8l-1.5-1l-1.5-0.4h-0.1l-0.1-0.1l-0.1-0.1l-1.7-1l-2.2-0.6
				C71.2,10.3,71.5,9.9,71.5,9.4z M14.7,24.8L14.7,24.8L14.7,24.8z M13.8,18.1l-0.6,0.5c-1.3,1.1-1.8,2.6-1.1,4.1l-0.1,0.1l-0.4,0.5
				c-0.7,1.1-0.6,2.6,0.2,3.7c-0.8,0.7-1.1,1.8-1,2.8c-0.6,0.3-1.1,0.6-1.7,1L8.5,6.2c0-0.2,0.1-0.4,0.1-0.6c0.5-1.6,3-1.8,4.4-1.9
				c2.7-0.2,6.8,0.7,9.3-0.3c0.3-0.2,0.8-0.6,1.2-0.7c2.9-0.3,6.1-0.3,8.9,0.5c0.1,0,0.1,0.1,0.1,0.1h-0.8c-1.9,0.3-3.7,1-5.6,1.7
				c-2.1,0.9-3.8,1.9-4.6,4.1l-0.2,1l-0.1,0.6h-0.2H20c-1.4,0.1-2.9,0.1-4.1,1c-1.1,0.9-1.4,2.2-0.9,3.4
				C14,15.6,13.5,16.9,13.8,18.1z M15.7,21.1L15.7,21.1L15.7,21.1z M20.7,27.6c-0.8-0.1-1.7,0-2.5,0.1c-0.5,0.1-1.1,0.1-1.6,0.2
				c0.3-1-0.6-1.7-1.4-2.4l-0.3-0.3L15,25l0.7-0.3c0.3-0.2,0.6-0.5,0.9-0.9l0.1-0.1c0.1-0.2,0.2-0.3,0.2-0.6
				c0.1-0.6-0.3-1.2-0.7-1.7L16,21.3l0.1-0.1l0.1-0.1l0.6-0.3c0.5-0.3,1.1-0.5,1.4-0.9c0.5-0.6,0.4-1.1,0.2-1.7
				c-0.1-0.3-0.3-0.6-0.5-0.9c0.5-0.1,1.2-0.2,1.5-0.5c0.8-0.7,0.8-1.4,0.5-1.9c-0.1-0.1-0.1-0.2-0.2-0.3c-0.2-0.3-0.5-0.6-0.9-0.8
				l-0.1-0.1l-0.3-0.2c0.1,0,0.2-0.1,0.2-0.1c1.4-0.4,3.1,0,4.5-0.8c1-0.6,1-1.5,1.1-2.5c0.1-0.7,0.1-1.5,0.7-2.1
				c2.3-2.2,5.8-3.4,8.8-4.7c1,0.6,1.7,1.4,2.4,2.5l0.2,0.3l-0.2,0.5l0.5-0.6c1.6-2.1,3.1-3.1,5.9-3.3c4.2-0.4,9.4,0.5,11.7,4.4
				c0.7,1.1,1.8,2.8,3.3,1.7c1.7-1.3,1.6-4.5,4.1-4.8c2.9-0.4,3.1,3.2,3.1,5.2c0,0.1,0.1,0.2,0.1,0.2c-11.3-0.7-23.1,3.3-31.5,10.1
				c-3,2.5-5.2,5.7-7.5,8.8C24,27.9,22.4,27.7,20.7,27.6z M45.3,30.9l-0.1,0.1l-0.8,0.5c-1.2,0.7-2.2,1.8-2.7,3.1
				c-0.1,0.3-0.2,0.6-0.3,0.9c-0.5-0.3-0.9-0.5-1.4-0.8c0,0-0.1,0-0.1-0.1c-2.6-1.5-5.3-3-8-4.1c-0.6-0.3-1.3-0.5-1.9-0.7l1.6-2.7
				c2.6-3.4,5.9-6.1,9.6-8.4c7.6-4.7,16.5-7.4,25.7-7.3l6,0.7l0.5,0.1l0.9,0.2l-14.9,3.3c-0.7,0.2-0.9,1-0.6,1.5
				c0.2,0.4,0.6,0.7,1.1,1c0.3,0.2,0.6,0.5,0.9,0.7l0.5,0.6l0.1,0.1l-1.4-0.3c-0.2,0-0.5,0-0.7,0c-0.5,0-0.9-0.1-1.3,0
				c-0.9,0.1-1.8,0.1-2.6,0.3c-1.3,0.2-2.7,0.5-3.5,1.4c-0.9,0.9-0.1,1.6,0.6,2.2c0.3,0.3,0.7,0.6,1,0.8l-1.4,0.1L51,24l-4,0.7
				c-0.4,0.1-1.1,0.2-1.8,0.3h-0.1c-1.5,0.3-3.1,1-2.4,2.7l0.2,0.3l0.4,0.6l2.1,2l0.2,0.2L45.3,30.9z M55.5,39.9l-0.2,0.9L55.2,41
				l-0.3,0.2L54,41.4l-0.9,0.1c-0.3,0-0.7-0.1-1-0.1c-1.9-1.1-4-2.2-5.9-3.3c-0.3-0.5-0.5-1-0.5-1.5c-0.1-1.4,1.5-2.1,2.6-2.3
				c1.4-0.3,4.4-0.4,3.5-2.8l-0.7-1l-2.5-2.2l-0.1-0.1l2.1-0.5l1.3-0.2c0.8-0.1,1.6-0.1,2.4,0c1.3,0.1,3.2,0.9,3.4-1.1
				c0.2-1.3-1.1-3-1.9-4.1l2.3-0.4h1.3c1.3,0.1,2.1,0.6,3.3,1c0.9,0.3,2.3,0.1,2-1.3c-0.3-1.7-1.3-3.3-2.5-4.6
				c1.5-0.3,3-0.9,4.5-1.5c0.7-0.3,1.5-0.6,2.3-1c1.5-0.6,4.1-1.7,5.7-2.2l0.2,4.5l0.1,6.7c-0.2-0.2-0.3-0.5-0.5-0.6
				c-0.2-0.3-0.5-0.5-0.8-0.7c-0.5-0.4-1.1-0.6-1.7-0.3c-1.3,0.5-0.9,1.9-0.9,2.9l0.1,0.9l-0.5,5l-0.3,1L70,31.3
				c-1-1.2-3.4-3.7-5.3-2.3c-1.3,1-0.5,2.5-0.6,3.8L63,37.3l-0.4,1.1l-0.1,0.3l-0.1-0.2l-0.2-0.3c-0.9-1.3-1.9-3.4-3.7-3.4
				C55.9,34.6,55.9,38.3,55.5,39.9z M57.3,44.9c-0.1-0.1-0.1-0.1-0.2-0.1c0.3-0.2,0.6-0.3,0.9-0.5c0.9-0.6,1.3-1.8,1.5-3
				c0.5,0.7,1,1.3,1.8,1.8c0.1,0.1,0.1,0.1,0.2,0.1c1.1,0.7,2.6-0.1,3.3-1c0.1-0.1,0.2-0.3,0.3-0.4c0.3-0.5,0.6-1,0.9-1.5
				c0.7-1.7,1.1-3.7,1.4-5.3v-0.2l0.2-1.4v-0.1c0,0,0,0,0,0.1c0.2,0.2,0.4,0.5,0.6,0.7c0.2,0.3,0.4,0.6,0.6,1c0.3,0.7,0.5,1.7,1.3,2
				c0.1,0.1,0.2,0.1,0.3,0.1c0.1,0,0.1,0.1,0.2,0.1c0.6,0.1,1.4-0.3,1.5-0.9c0.2-0.6,0.3-1.2,0.5-1.8c0.5-2.2,0.9-4.6,1-6.8
				c0-0.1,0-0.2,0-0.3c0.1-0.5,0.1-1,0.1-1.4l0.1,0.1l0.4,0.7l0.9,1.5c0.2,0.3,1.4,1.3,1.7,0.3c0.1-0.3,0.2-0.7,0.2-1.1
				c0.1-0.2,0.1-0.5,0.1-0.7c0.5-4.3-1.5-10.4-2.2-14.4l1,1l0.1,0.1l1.3,1.1l1.1,1.3c0.3,0.5,0.6,0.9,0.8,1.4
				c0.3,0.5,0.3,0.7,0.6,1.2c1.9,4.1,2.3,8.6,0.9,13c-1.5,5.1-6,9.5-10.6,12.3c-1.7,1-3.5,1.7-5.3,2.5c-1.5,0.6-3,1.3-4.2,2.2
				C59.6,47,58.5,45.9,57.3,44.9z M85.7,64.6c-2.9,1.7-6.2,1.8-9.5,1.8L61.6,66c0.6-1.2,1-2.5,1.3-3.8c0.3-0.1,0.6-0.2,0.9-0.3
				c1.5,1.2,3.7,1.1,5.1-0.1l0.1,0.1l0.5,0.2c1.5,0.4,3-0.1,4-1.2l0.3,0.1l0.6-0.1c0.4-0.1,0.9-0.2,1.2-0.5l0.5-0.3l0.7-1
				c3.5,1.1,6.1-3.7,7.8-5.8c0.5-0.6,1.2-1,1.5-1.8c2.4-5.4,1.1-11.9,0.5-17.5c1.9,1.3,2.3,3.7,2.5,5.9l0.1,12.6
				C89.1,55.9,89.5,62.2,85.7,64.6z"/>
			<path class="st3" d="M84.2,39.7l-0.6,4.6c-0.3,1.5-0.7,2.7-1.3,4.1c-0.4,0.3-0.6,0.8-0.7,1.4c0,0.1,0,0.2,0.1,0.2
				c-0.2-0.1-0.3-0.1-0.5-0.1c-1,0-1.9,0.9-2.1,2c-0.4-0.3-0.9-0.5-1.4-0.5c-1.4,0-2.5,1.2-2.6,2.7c-0.4-0.5-1-0.8-1.6-0.8
				c-1.2,0-2.3,1-2.4,2.4c-0.3-0.3-0.9-0.6-1.4-0.6c-1,0-1.8,0.7-2.1,1.7c-0.3-0.3-0.7-0.6-1.3-0.6c-0.9,0-1.6,0.7-1.8,1.6
				c-0.2-0.5-0.7-0.8-1.2-0.9c0.1,0.5,0.1,1,0.1,1.5c0.4-0.2,0.9-0.2,1.5,0.1c0.3,0.2,1.1,1.8,1.7,0.9c0.5-0.9,1-1.7,2.2-1.5
				c0.5,0.1,1.1,0.5,1.6,0.7c0-0.1,0.1-0.2,0.1-0.3c0.5-1,0.8-1.6,2.1-1.6l0.9,0.2l0.3,0.1l0.1-0.1l0.6-1.2L75,55
				c1-0.7,1.9-0.2,2.7,0.6l0.1,0.1l0.1,0.1h0.1l0.2-0.1c0.8-0.4,1.5-1,2.1-1.6c0,0,0,0,0-0.1c1-1.1,1.9-2.3,3-3.3
				c0.3-0.3,0.5-0.6,0.7-1l1.1-3.1c0.1-0.2,0.1-0.3,0.1-0.5l0.1-3.2l0.2-1.5l0.6-4.7l0.1-0.3l0.1-0.6c-0.4,0.7-1.1,1.9-1.5,2.9
				C84.4,39.1,84.3,39.4,84.2,39.7z"/>
			<path class="st2" d="M129.1,33.2h-16.3v4.3h5.4v13h5.3v-13h5.5V33.2z"/>
			<path class="st2" d="M151.8,46.6h-9.2v-3.4h8.3v-3.5h-8.3v-2.7h9v-3.7h-14.4v17.3h14.6V46.6z"/>
			<path class="st2" d="M193.8,43.7l-2.7-10.5h-7v17.3h4.4V37.3l3.4,13.2h4l3.4-13.2v13.2h4.4V33.2h-7L193.8,43.7z"/>
			<path class="st2" d="M217.2,33.2h-5.4v17.3h5.4V33.2z"/>
			<path class="st2" d="M225.6,37.5h5.4v13h5.4v-13h5.4v-4.3h-16.3V37.5z"/>
			<path class="st2" d="M265.1,36.9v-3.7h-14.3v17.3h14.6v-3.9h-9.2v-3.4h8.3v-3.5h-8.3v-2.7H265.1z"/>
			<path class="st2" d="M289.1,48.3c0.6-0.9,0.9-1.9,0.9-3.1c0-1-0.2-1.8-0.7-2.6c-0.5-0.7-1.2-1.4-2.2-1.9c-1-0.5-2.7-1-5-1.5
				c-1-0.2-1.5-0.4-1.8-0.6c-0.3-0.2-0.4-0.5-0.4-0.7c0-0.4,0.2-0.7,0.5-1c0.3-0.3,0.8-0.4,1.4-0.4c0.7,0,1.4,0.2,1.8,0.5
				c0.5,0.3,0.7,0.9,0.9,1.7l5-0.3c-0.2-1.8-0.9-3.1-2.1-3.9c-1.1-0.8-2.9-1.3-5.1-1.3c-1.8,0-3.2,0.2-4.2,0.7
				c-1,0.5-1.8,1.1-2.3,1.9c-0.5,0.8-0.8,1.7-0.8,2.5c0,1.4,0.5,2.5,1.5,3.3c1,0.9,2.7,1.5,5,2.1c1.4,0.3,2.3,0.6,2.7,1
				c0.4,0.3,0.6,0.7,0.6,1.2c0,0.5-0.2,0.9-0.6,1.3c-0.4,0.3-1,0.5-1.8,0.5c-1,0-1.8-0.3-2.3-1c-0.3-0.5-0.6-1.1-0.7-1.9l-5.1,0.3
				c0.2,1.8,0.8,3.2,1.9,4.3c1.1,1.1,3.1,1.7,6.1,1.7c1.7,0,3.1-0.2,4.2-0.7C287.6,49.9,288.5,49.2,289.1,48.3z"/>
			<path class="st2" d="M173.6,44.4c-0.4-0.5-0.7-0.7-0.9-0.9c-0.3-0.2-0.7-0.4-1.4-0.6c0.8-0.2,1.4-0.4,1.9-0.7
				c0.7-0.5,1.3-1,1.7-1.7c0.4-0.7,0.6-1.5,0.6-2.5c0-1.1-0.3-2.1-0.8-2.8c-0.5-0.7-1.3-1.3-2.1-1.6c-0.9-0.3-2.1-0.4-3.8-0.4H160
				v17.3h5.4v-7h0.5c0.5,0,0.9,0.1,1.3,0.4c0.3,0.2,0.6,0.6,1,1.3l2.9,5.3h6l-2.6-5C174.2,45.2,173.9,44.8,173.6,44.4z M169.8,39.4
				c-0.2,0.3-0.5,0.5-0.9,0.6c-0.7,0.2-1.2,0.2-1.4,0.2h-2.2v-3.5h2.3c1,0,1.7,0.2,2,0.5c0.3,0.3,0.5,0.7,0.5,1.3
				C170.2,38.8,170,39.1,169.8,39.4z"/>
			<path class="st4" d="M117.7,55.8c-0.5,0-0.9,0.1-1.3,0.3c-0.3,0.2-0.6,0.5-1,0.9v-1h-2.6v9.8h2.7v-3.4c0.3,0.3,0.6,0.5,0.9,0.6
				c0.3,0.1,0.7,0.2,1.1,0.2c0.9,0,1.6-0.3,2.2-0.9c0.6-0.6,0.9-1.5,0.9-2.7c0-1.1-0.3-2-0.8-2.7C119.3,56.1,118.6,55.8,117.7,55.8z
				 M117.8,60.9c-0.2,0.3-0.5,0.4-0.8,0.4c-0.3,0-0.7-0.1-0.9-0.4c-0.2-0.3-0.3-0.7-0.3-1.3c0-0.6,0.1-1,0.3-1.3
				c0.2-0.3,0.5-0.4,0.9-0.4c0.3,0,0.6,0.1,0.8,0.4c0.2,0.3,0.3,0.7,0.3,1.3C118.1,60.2,118,60.7,117.8,60.9z"/>
			<path class="st4" d="M130.8,56.4c-0.6-0.3-1.4-0.5-2.4-0.5c-1.3,0-2.2,0.3-3,1c-0.7,0.7-1.1,1.6-1.1,2.7c0,0.8,0.2,1.5,0.5,2.1
				c0.3,0.6,0.8,1,1.4,1.3c0.6,0.3,1.3,0.4,2.2,0.4c1.1,0,1.9-0.2,2.5-0.5c0.6-0.3,1.1-0.8,1.5-1.5l-2.7-0.2
				c-0.2,0.2-0.3,0.3-0.5,0.5c-0.2,0.1-0.5,0.2-0.7,0.2c-0.4,0-0.7-0.2-1-0.5c-0.2-0.2-0.3-0.5-0.3-1h5.5v-0.3
				c0-0.9-0.2-1.7-0.5-2.3C131.9,57.2,131.4,56.7,130.8,56.4z M127.2,59.1c0.1-0.4,0.2-0.7,0.3-1c0.3-0.3,0.6-0.5,1-0.5
				s0.7,0.1,0.9,0.3c0.2,0.2,0.3,0.6,0.4,1.1H127.2z"/>
			<path class="st4" d="M142.9,59.1c-0.5-0.2-1.1-0.3-2-0.4c-0.6-0.1-1-0.2-1.1-0.2c-0.2-0.1-0.3-0.2-0.3-0.4c0-0.2,0.1-0.3,0.2-0.4
				c0.1-0.1,0.3-0.2,0.7-0.2c0.3,0,0.6,0.1,0.8,0.2c0.2,0.1,0.3,0.3,0.3,0.5l2.6-0.3c-0.2-0.5-0.4-0.9-0.7-1.1
				c-0.3-0.3-0.6-0.5-1-0.6c-0.4-0.1-1-0.2-1.9-0.2c-0.8,0-1.4,0.1-1.9,0.2c-0.5,0.2-0.9,0.4-1.1,0.7c-0.3,0.3-0.4,0.7-0.4,1.2
				c0,0.5,0.1,0.8,0.4,1.1c0.2,0.3,0.6,0.6,0.9,0.7c0.3,0.1,1,0.3,2,0.5c0.6,0.1,1,0.2,1.2,0.3c0.2,0.1,0.3,0.3,0.3,0.5
				c0,0.2-0.1,0.3-0.2,0.5c-0.2,0.2-0.5,0.2-0.9,0.2c-0.3,0-0.6-0.1-0.8-0.2c-0.2-0.1-0.3-0.3-0.5-0.7l-2.7,0.3
				c0.2,0.7,0.5,1.2,1.1,1.6c0.6,0.4,1.5,0.6,2.8,0.6c0.9,0,1.7-0.1,2.2-0.3c0.5-0.2,0.9-0.5,1.2-0.9c0.2-0.4,0.4-0.8,0.4-1.2
				s-0.1-0.8-0.3-1.1C143.7,59.5,143.3,59.2,142.9,59.1z"/>
			<path class="st4" d="M152.7,61.7c-0.2,0-0.4-0.1-0.5-0.2c-0.1-0.1-0.1-0.3-0.1-0.6v-2.5h1.5v-2h-1.5v-2.7l-2.7,1.4v1.3h-1v2h1
				v2.5c0,0.8,0.1,1.4,0.2,1.7c0.2,0.3,0.4,0.6,0.7,0.8c0.3,0.2,0.8,0.3,1.5,0.3c0.6,0,1.2-0.1,1.9-0.2l-0.2-1.9
				C153.2,61.6,152.9,61.7,152.7,61.7z"/>
			<path class="st4" d="M173.6,55.9c-0.5,0-1,0.1-1.3,0.2c-0.3,0.2-0.7,0.5-1.2,1c-0.2-0.4-0.5-0.7-0.8-0.9
				c-0.3-0.2-0.8-0.3-1.4-0.3c-0.5,0-1,0.1-1.4,0.3c-0.4,0.2-0.7,0.5-1.1,0.9v-1h-2.6v7.1h2.7v-3.7c0-0.5,0.1-0.9,0.3-1.1
				c0.2-0.2,0.5-0.3,0.8-0.3c0.2,0,0.3,0.1,0.5,0.2c0.1,0.1,0.2,0.2,0.3,0.5c0.1,0.1,0.1,0.3,0.1,0.6v3.9h2.7v-3.7
				c0-0.5,0.1-0.9,0.3-1.1c0.2-0.2,0.5-0.3,0.8-0.3c0.3,0,0.5,0.1,0.7,0.3c0.1,0.2,0.2,0.4,0.2,0.7v4.1h2.7v-4.5
				c0-1-0.2-1.7-0.6-2.1C174.9,56.1,174.3,55.9,173.6,55.9z"/>
			<path class="st4" d="M188,61.7v-3.1c0-0.3-0.1-0.7-0.2-1.1c-0.1-0.3-0.3-0.6-0.6-0.9c-0.3-0.3-0.7-0.5-1.3-0.6
				c-0.5-0.1-1.1-0.1-2-0.1c-0.5,0-1,0.1-1.4,0.1c-0.5,0.1-0.8,0.2-1,0.3c-0.3,0.2-0.6,0.4-0.8,0.7c-0.2,0.3-0.3,0.6-0.4,1.1
				l2.6,0.3c0.1-0.3,0.2-0.5,0.4-0.6c0.2-0.1,0.6-0.2,1-0.2c0.3,0,0.6,0.1,0.7,0.2c0.1,0.1,0.2,0.3,0.2,0.7c-0.3,0.1-0.7,0.2-1,0.3
				c-0.3,0.1-1,0.2-2,0.5c-0.9,0.2-1.4,0.5-1.8,0.8c-0.3,0.3-0.5,0.8-0.5,1.3c0,0.6,0.2,1.1,0.7,1.4c0.5,0.4,1.1,0.6,1.9,0.6
				c0.6,0,1.2-0.1,1.7-0.3c0.3-0.2,0.7-0.4,1.1-0.7c0.1,0.2,0.1,0.3,0.1,0.5c0.1,0.1,0.1,0.2,0.2,0.4h2.6c-0.2-0.3-0.2-0.5-0.3-0.7
				C188,62.3,188,62.1,188,61.7z M185.3,60.3c0,0.3-0.1,0.6-0.2,0.9c-0.1,0.2-0.3,0.4-0.6,0.5c-0.3,0.2-0.6,0.2-0.9,0.2
				c-0.3,0-0.5-0.1-0.7-0.2c-0.2-0.1-0.2-0.3-0.2-0.5c0-0.2,0.1-0.3,0.2-0.5c0.2-0.1,0.5-0.3,1-0.5c0.4-0.1,0.8-0.2,1.2-0.3
				L185.3,60.3L185.3,60.3z"/>
			<path class="st4" d="M198,56c-0.6,0-1,0.1-1.4,0.3c-0.4,0.2-0.8,0.5-1.1,1v-1.1h-2.6v7.1h2.7v-3.4c0-0.6,0.1-1.1,0.3-1.4
				c0.2-0.2,0.5-0.4,0.8-0.4c0.3,0,0.5,0.1,0.7,0.3c0.2,0.2,0.2,0.5,0.2,1v3.9h2.7v-4.5c0-0.9-0.2-1.7-0.6-2.1
				C199.4,56.3,198.8,56,198,56z"/>
			<path class="st4" d="M213,61.7v-3.1c0-0.3-0.1-0.7-0.2-1.1c-0.1-0.3-0.3-0.6-0.6-0.9c-0.3-0.3-0.7-0.5-1.3-0.6
				c-0.5-0.1-1.1-0.1-2-0.1c-0.5,0-1,0.1-1.4,0.1c-0.5,0.1-0.8,0.2-1,0.3c-0.3,0.2-0.6,0.4-0.8,0.7c-0.2,0.3-0.3,0.6-0.4,1.1
				l2.6,0.3c0.1-0.3,0.2-0.5,0.4-0.6c0.2-0.1,0.6-0.2,1-0.2c0.3,0,0.6,0.1,0.7,0.2c0.1,0.1,0.2,0.3,0.2,0.7c-0.3,0.1-0.7,0.2-1,0.3
				c-0.3,0.1-1,0.2-2,0.5c-0.9,0.2-1.4,0.5-1.8,0.8c-0.3,0.3-0.5,0.8-0.5,1.3c0,0.6,0.2,1.1,0.7,1.4c0.5,0.4,1.1,0.6,1.9,0.6
				c0.6,0,1.2-0.1,1.7-0.3c0.3-0.2,0.7-0.4,1.1-0.7c0.1,0.2,0.1,0.3,0.1,0.5c0.1,0.1,0.1,0.2,0.2,0.4h2.6c-0.2-0.3-0.2-0.5-0.3-0.7
				C213.1,62.3,213,62.1,213,61.7z M210.4,60.3c0,0.3-0.1,0.6-0.2,0.9c-0.1,0.2-0.3,0.4-0.6,0.5c-0.3,0.2-0.6,0.2-0.9,0.2
				c-0.3,0-0.5-0.1-0.7-0.2c-0.2-0.1-0.2-0.3-0.2-0.5c0-0.2,0.1-0.3,0.2-0.5c0.2-0.1,0.5-0.3,1-0.5c0.4-0.1,0.8-0.2,1.2-0.3
				L210.4,60.3L210.4,60.3z"/>
			<path class="st4" d="M252.3,56c-0.5,0-1,0.1-1.3,0.2c-0.3,0.2-0.7,0.5-1.2,1c-0.2-0.4-0.5-0.7-0.8-0.9c-0.3-0.2-0.8-0.3-1.4-0.3
				c-0.5,0-1,0.1-1.4,0.3c-0.4,0.2-0.7,0.5-1.1,0.9v-1h-2.6v7.1h2.7v-3.7c0-0.5,0.1-0.9,0.3-1.1c0.2-0.2,0.5-0.3,0.8-0.3
				c0.2,0,0.3,0.1,0.5,0.2c0.1,0.1,0.2,0.2,0.3,0.5c0.1,0.1,0.1,0.3,0.1,0.6v3.9h2.7v-3.7c0-0.5,0.1-0.9,0.3-1.1
				c0.2-0.2,0.5-0.3,0.8-0.3c0.3,0,0.5,0.1,0.7,0.3c0.1,0.2,0.2,0.4,0.2,0.7v4.1h2.7v-4.5c0-1-0.2-1.7-0.6-2.1
				C253.6,56.3,253,56,252.3,56z"/>
			<path class="st4" d="M277.3,56c-0.6,0-1,0.1-1.4,0.3c-0.4,0.2-0.8,0.5-1.1,1v-1.1h-2.6v7.1h2.7v-3.4c0-0.6,0.1-1.1,0.3-1.4
				c0.2-0.2,0.5-0.4,0.8-0.4c0.3,0,0.5,0.1,0.7,0.3c0.2,0.2,0.2,0.5,0.2,1v3.9h2.7v-4.5c0-0.9-0.2-1.7-0.6-2.1
				C278.7,56.3,278.1,56,277.3,56z"/>
			<path class="st4" d="M288.7,61.7c-0.2,0-0.4-0.1-0.5-0.2c-0.1-0.1-0.1-0.3-0.1-0.6v-2.5h1.5v-2h-1.5v-2.7l-2.7,1.4v1.3h-1v2h1
				v2.5c0,0.8,0.1,1.4,0.2,1.7c0.2,0.3,0.4,0.6,0.7,0.8c0.3,0.2,0.8,0.3,1.5,0.3c0.6,0,1.2-0.1,1.9-0.2l-0.2-1.9
				C289.3,61.6,289,61.7,288.7,61.7z"/>
			<path class="st4" d="M225.2,56h-2.6v1c-0.3-0.5-0.6-0.7-1-0.9c-0.3-0.2-0.8-0.3-1.4-0.3c-0.9,0-1.5,0.3-2.1,0.9
				c-0.5,0.6-0.8,1.4-0.8,2.5c0,1,0.2,1.8,0.6,2.3c0.6,0.9,1.4,1.3,2.3,1.3c0.5,0,0.9-0.1,1.4-0.3c0.3-0.2,0.5-0.4,0.8-0.7v1.1
				c0,0.5-0.1,0.9-0.3,1.1c-0.2,0.2-0.5,0.3-0.9,0.3c-0.3,0-0.6-0.1-0.7-0.2c-0.1-0.1-0.2-0.3-0.3-0.5l-2.6-0.3c0,0.2,0,0.3,0,0.3
				c0,0.7,0.3,1.3,0.8,1.7c0.5,0.5,1.5,0.6,3,0.6c0.6,0,1.2-0.1,1.7-0.2c0.5-0.1,0.9-0.3,1.2-0.6c0.3-0.2,0.6-0.6,0.7-1
				c0.2-0.4,0.3-0.9,0.3-1.3v-0.3L225.2,56L225.2,56z M222.1,60.6c-0.2,0.2-0.5,0.4-0.9,0.4c-0.3,0-0.6-0.1-0.9-0.4
				c-0.2-0.2-0.3-0.6-0.3-1.1c0-0.6,0.1-1,0.3-1.3c0.2-0.2,0.5-0.4,0.9-0.4c0.3,0,0.6,0.1,0.9,0.4c0.2,0.3,0.3,0.7,0.3,1.2
				C222.4,60,222.3,60.4,222.1,60.6z"/>
			<path class="st4" d="M236.3,56.4c-0.6-0.3-1.4-0.5-2.4-0.5c-1.3,0-2.2,0.3-3,1c-0.7,0.7-1.1,1.6-1.1,2.7c0,0.8,0.2,1.5,0.5,2.1
				c0.3,0.6,0.8,1,1.4,1.3c0.6,0.3,1.3,0.4,2.2,0.4c1.1,0,1.9-0.2,2.5-0.5c0.6-0.3,1.1-0.8,1.5-1.5l-2.7-0.2
				c-0.2,0.2-0.3,0.3-0.5,0.5c-0.2,0.1-0.5,0.2-0.7,0.2c-0.4,0-0.7-0.2-1-0.5c-0.2-0.2-0.3-0.5-0.3-1h5.5v-0.3
				c0-0.9-0.2-1.7-0.5-2.3C237.3,57.2,236.9,56.7,236.3,56.4z M232.6,59.1c0.1-0.4,0.2-0.7,0.3-1c0.3-0.3,0.6-0.5,1-0.5
				c0.4,0,0.7,0.1,0.9,0.3c0.2,0.2,0.3,0.6,0.4,1.1H232.6z"/>
			<path class="st4" d="M265.7,56.4c-0.6-0.3-1.4-0.5-2.4-0.5c-1.3,0-2.2,0.3-3,1c-0.7,0.7-1.1,1.6-1.1,2.7c0,0.8,0.2,1.5,0.5,2.1
				c0.3,0.6,0.8,1,1.4,1.3c0.6,0.3,1.3,0.4,2.2,0.4c1.1,0,1.9-0.2,2.5-0.5c0.6-0.3,1.1-0.8,1.5-1.5l-2.7-0.2
				c-0.2,0.2-0.3,0.3-0.5,0.5c-0.2,0.1-0.5,0.2-0.7,0.2c-0.4,0-0.7-0.2-1-0.5c-0.2-0.2-0.3-0.5-0.3-1h5.5v-0.3
				c0-0.9-0.2-1.7-0.5-2.3C266.8,57.2,266.3,56.7,265.7,56.4z M262.1,59.1c0.1-0.4,0.2-0.7,0.3-1c0.3-0.3,0.6-0.5,1-0.5
				s0.7,0.1,0.9,0.3c0.2,0.2,0.3,0.6,0.4,1.1H262.1z"/>
			<path class="st4" d="M127.6,21c-0.7,0.8-1.7,1.1-3.1,1.1c-1.4,0-2.5-0.5-3.3-1.4c-0.8-1-1.2-2.7-1.2-5.3c0-2.1,0.3-3.6,1-4.6
				c0.9-1.3,2.1-1.9,3.7-1.9c0.7,0,1.4,0.2,1.9,0.5c0.6,0.3,1.1,0.7,1.5,1.3c0.2,0.3,0.5,0.9,0.7,1.5l6.4-1.4
				c-0.8-2.5-2.1-4.3-3.7-5.4c-1.7-1.2-4-1.8-6.9-1.8c-3.7,0-6.6,1-8.7,3.1c-2.1,2.1-3.1,5-3.1,8.8c0,2.9,0.6,5.2,1.7,7.1
				c1.1,1.8,2.6,3.1,4.2,3.9c1.6,0.7,3.7,1.1,6.2,1.1c2.1,0,3.8-0.3,5.2-0.9c1.4-0.6,2.5-1.5,3.4-2.7s1.6-2.6,2-4.4l-6.3-1.9
				C128.8,19.1,128.3,20.3,127.6,21z"/>
			<path class="st4" d="M162.8,15.5c0-3.7-1-6.6-3.1-8.7c-2.1-2.1-5.1-3.1-8.9-3.1c-3.8,0-6.7,1-8.8,3.1c-2.1,2.1-3.2,5.1-3.2,8.8
				c0,2.7,0.5,5,1.6,6.8c1.1,1.8,2.5,3.1,4.2,3.9c1.7,0.9,3.9,1.3,6.5,1.3c2.6,0,4.8-0.5,6.5-1.4c1.7-1,3-2.3,4-4.1
				C162.3,20.4,162.8,18.2,162.8,15.5z M154.3,20.8c-0.9,1-2.1,1.5-3.6,1.5c-1.5,0-2.7-0.5-3.6-1.5c-0.9-1-1.3-2.7-1.3-5
				c0-2.3,0.5-4.1,1.3-5.1c0.9-1,2.1-1.5,3.5-1.5c1.5,0,2.7,0.5,3.6,1.5c0.9,1,1.3,2.6,1.3,4.8C155.6,18,155.2,19.7,154.3,20.8z"/>
			<path class="st4" d="M172.6,14.4l8.8,12.7h6.8V3.9h-6.8v12.8l-8.8-12.8h-6.8v23.2h6.8V14.4z"/>
			<path class="st2" d="M211.7,28.4c1,0.7,2,1.3,3,1.7l2-4c-0.7-0.3-1.3-0.6-1.7-0.8c-0.3-0.2-0.9-0.6-1.8-1.2
				c1.7-2.1,2.5-4.8,2.5-8.2c0-3.8-1-6.8-3.1-8.9c-2.1-2.1-5.1-3.1-8.9-3.1c-3.8,0-6.8,1.1-8.9,3.2s-3.1,5.1-3.1,8.9
				c0,3.9,1.2,7,3.6,9.1c2.1,1.8,4.8,2.7,8.4,2.7c2.4,0,4.4-0.3,6-1C210.1,27.3,210.8,27.8,211.7,28.4z M207.8,20.5
				c-0.3-0.2-0.6-0.3-0.8-0.5c-1-0.7-1.7-1.1-2.1-1.3c-0.3-0.2-0.9-0.3-1.5-0.5l-1.1,2.6c1.3,0.5,2.2,1.1,2.9,1.7
				c-0.5,0.1-0.9,0.1-1.4,0.1c-1.5,0-2.7-0.5-3.5-1.5c-0.9-1-1.3-2.8-1.3-5.3c0-2.2,0.5-3.8,1.3-4.8c0.9-1,2.1-1.5,3.5-1.5
				c1.5,0,2.7,0.5,3.6,1.5c0.9,1,1.3,2.7,1.3,5C208.6,18,208.4,19.5,207.8,20.5z"/>
			<path class="st4" d="M221.1,24.3c0.7,0.9,1.5,1.5,2.5,2c0.9,0.5,2,0.8,3.4,0.9c1.3,0.2,2.6,0.2,3.7,0.2c1.9,0,3.6-0.3,5-0.8
				c1-0.4,1.9-1,2.9-1.9c0.9-0.9,1.6-2,2-3.2c0.4-1.2,0.6-2.5,0.6-3.9V3.9h-7.2V18c0,1.3-0.3,2.3-1,3c-0.7,0.7-1.7,1-2.9,1
				c-1.3,0-2.2-0.3-2.9-1.1c-0.7-0.7-1-1.7-1-3V3.9H219v13.8c0,1.1,0.2,2.5,0.7,3.9C219.9,22.5,220.4,23.5,221.1,24.3z"/>
			<path class="st4" d="M264.2,21.9h-12.4v-4.6H263v-4.7h-11.2V8.9h12v-5h-19.2v23.2h19.6V21.9z"/>
			<path class="st4" d="M274.3,17.8h0.6c0.6,0,1.3,0.2,1.8,0.5c0.4,0.3,0.8,0.9,1.3,1.8l3.8,7.1h8.1l-3.5-6.7
				c-0.2-0.3-0.5-0.8-1-1.4c-0.5-0.6-0.9-1-1.1-1.2c-0.4-0.3-1-0.6-1.9-0.9c1.1-0.2,1.9-0.6,2.5-0.9c1-0.6,1.7-1.3,2.3-2.3
				c0.6-0.9,0.8-2.1,0.8-3.3c0-1.5-0.3-2.7-1.1-3.8c-0.7-1-1.7-1.7-2.9-2.1C282.9,4.2,281.2,4,279,4h-12v23.2h7.3V17.8z M274,7.9
				h3.1c1.3,0,2.2,0.2,2.7,0.6c0.5,0.4,0.7,1,0.7,1.7c0,0.5-0.2,1-0.5,1.4c-0.3,0.4-0.7,0.6-1.1,0.7c-0.9,0.2-1.6,0.3-1.9,0.3h-3
				V7.9z"/>
		</g>
	</g>
</g>
</svg>
