<svg version="1.1" id="Layer_1" xmlns="http://www.w3.org/2000/svg" xmlns:xlink="http://www.w3.org/1999/xlink" x="0px" y="0px"
	 viewBox="0 0 950.75 250" style="enable-background:new 0 0 950.75 250;" xml:space="preserve">
<style type="text/css">
	.st0{fill:none;}
	.st1{fill:#FFFFFF;}
	.st2{fill:#684286;}
	.st3{fill:#A5CD39;}
	.st4{fill:#D1E187;}
</style>
<g>
	<path class="st0" d="M667.88,30.91c-4.67,0-8.47,1.67-11.39,5.04c-2.91,3.36-4.37,8.62-4.37,15.77c0,8.31,1.42,14.16,4.26,17.53
		c2.84,3.36,6.75,5.04,11.7,5.04c1.6,0,3.11-0.16,4.53-0.46c-1.97-1.92-5.1-3.71-9.36-5.42l3.69-8.49c2.08,0.39,3.69,0.85,4.87,1.42
		c1.16,0.55,3.41,2.01,6.79,4.37c0.8,0.55,1.67,1.12,2.59,1.7c1.88-3.35,2.82-8.38,2.82-15.08c0-7.71-1.44-13.2-4.3-16.5
		C676.86,32.54,672.92,30.91,667.88,30.91z"/>
	<path class="st0" d="M278.69,153.05l0.25-0.7l0.45-11.29l-0.42,10.52C278.95,152.09,278.85,152.58,278.69,153.05z"/>
	<path class="st0" d="M76.03,122.6l0.44,0.14l0.02-0.08C76.34,122.64,76.18,122.61,76.03,122.6z"/>
	<path class="st0" d="M140.74,92.41c-3.56,5.43-6.32,10.85-8.21,16.09C134.65,103.12,137.54,97.31,140.74,92.41z"/>
	<path class="st1" d="M183.2,15.23c0.27,0.21,0.51,0.43,0.77,0.65l3.3-5.6c0.99-1.5,2.21-2.75,3.52-3.88h-19.96
		c0.74,0.3,1.52,0.55,2.24,0.87C177.16,9.14,180.39,11.86,183.2,15.23z"/>
	<path class="st1" d="M278.72,54.23c5.61,1.7,10.17,5.09,13.41,9.4V42.81C288.65,47.51,283.87,51.17,278.72,54.23z"/>
	<polygon class="st2" points="70.08,35.65 70.07,35.68 70.06,35.77 	"/>
	<path class="st2" d="M52.21,37.69c3.91-2.85,8.87-3.04,13.54-3.2l3.73,0.05l0.78-0.06l0.24-2.01l0.79-3.29
		c2.49-7,8.18-10.49,14.99-13.24c5.86-2.37,11.86-4.65,18.13-5.61l2.55,0.02c-0.16-0.05-0.28-0.14-0.44-0.18
		c-9.27-2.62-19.86-2.37-29.38-1.48c-1.33,0.12-2.74,1.67-3.93,2.17c-8.54,3.64-21.7,0.65-30.63,1.08
		c-4.57,0.22-12.73,0.89-14.34,6.12c-0.2,0.66-0.36,1.35-0.36,2.04l1.54,80.61c1.84-1.12,3.73-2.16,5.68-3.11
		c-0.41-3.39,0.46-6.72,3.13-9.18c-2.63-3.49-3.1-8.28-0.57-11.98l1.35-1.71l0.44-0.36c-2.4-4.86-0.53-9.89,3.68-13.39l2.12-1.4
		c-0.91-4.07,0.79-8.16,4.2-10.67C47.57,44.97,48.39,40.48,52.21,37.69z"/>
	<path class="st2" d="M108.59,63.96c27.62-22.49,66.6-35.65,103.51-33.19c-0.03-0.26-0.16-0.5-0.16-0.77
		c-0.28-6.43-1.01-18.3-10.38-17.03c-8.09,1.09-7.92,11.86-13.35,15.9c-5.1,3.8-8.75-1.52-10.92-5.37
		c-7.27-12.84-24.47-15.84-38.32-14.48c-8.95,0.88-14.1,4.29-19.28,10.97l-1.53,2.14l0.5-1.59l-0.67-0.86
		c-2.24-3.25-4.47-6.12-7.81-8.01c-9.91,4.07-21.18,7.96-28.82,15.37c-1.92,1.86-2.18,4.35-2.36,6.83c0.31-0.04,0.61-0.09,0.93-0.11
		c1.21-2.62,2.26-5.34,4.29-7.39c4.47-4.51,11.41-5.68,17.1-8.03l8-3.93l0.42,0.3c-2.02,2.53-3.95,5.06-6.59,6.98
		c-4.34,3.14-10.62,4.65-13.99,8.98c-0.84,1.07-1.29,2.35-1.68,3.65c2.93,0.72,4.9,1.99,4.9,3.45c0,2.25-4.65,4.08-10.35,4.08
		c-0.2,0-0.38-0.02-0.57-0.02c2.29,0.87,3.72,2.09,3.72,3.44c0,2.64-5.48,4.8-12.19,4.8c-0.56,0-1.1-0.04-1.64-0.07
		c4.92,0.88,8.38,2.83,8.38,5.09c0,3.08-6.38,5.6-14.21,5.6c-0.57,0-1.12-0.04-1.67-0.07c4.65,0.8,7.91,2.63,7.91,4.75
		c0,2.86-5.92,5.19-13.17,5.19c-0.6,0-1.18-0.04-1.76-0.07c3.59,0.64,6.11,2.06,6.11,3.71c0,1.99-3.64,3.64-8.42,4
		c-0.05,0.09-0.12,0.17-0.17,0.25c3.52,0.65,5.99,2.05,5.99,3.68c0,1.46-1.98,2.74-4.92,3.46c3.16,0.7,5.33,2.02,5.33,3.54
		c0,0.64-0.41,1.24-1.09,1.78c2.67-0.2,5.36-0.29,8.06-0.15c5.66,0.3,11.09,1.12,16.37,2.33C91.42,82.66,98.62,72.07,108.59,63.96z"
		/>
	<polygon class="st2" points="58.73,45.71 58.76,45.67 58.63,45.77 58.63,45.81 	"/>
	<path class="st2" d="M67.73,49.57c-1.47-0.28-2.77-0.67-3.84-1.14c0.28,0.35,0.53,0.72,0.74,1.09c0.29-0.01,0.56-0.03,0.86-0.03
		C66.26,49.48,67,49.53,67.73,49.57z"/>
	<path class="st2" d="M59.77,60.2c0,0.01,0.01,0.02,0.01,0.03c0.05,0,0.09,0,0.14,0C59.87,60.22,59.82,60.21,59.77,60.2z"/>
	<path class="st2" d="M53.5,70.15c-0.38-0.06-0.71-0.15-1.07-0.22l-0.2,0.15l0.05,0.05c0.09,0,0.18-0.01,0.28-0.01
		C52.88,70.12,53.18,70.14,53.5,70.15z"/>
	<path class="st2" d="M262.7,177.57c0.02-0.02,0.04-0.04,0.05-0.06c-0.02-0.01-0.04-0.03-0.06-0.05
		C262.7,177.5,262.7,177.53,262.7,177.57z"/>
	<path class="st2" d="M237.78,153.9c-10.53,7.02-20.12,17.84-32.43,20.43c1.08,3.96,1.85,8.01,2.16,12.12
		c1.7,0.23,3.09,1.33,3.88,2.92c0.78-2.98,3.17-5.21,6.04-5.17c1.61,0.02,3.03,0.78,4.08,1.94c1.05-3.17,3.78-5.45,6.92-5.4
		c1.74,0.02,3.28,0.78,4.48,1.97c0.42-4.44,3.83-7.94,7.85-7.89c2.14,0.03,4.02,1.06,5.35,2.68c0.3-5.04,4.13-9.07,8.65-9.01
		c1.69,0.03,3.24,0.63,4.52,1.63c0.45-3.72,3.28-6.65,6.67-6.6c0.6,0.01,1.14,0.23,1.69,0.41c-0.02-0.26-0.12-0.5-0.11-0.77
		c0.07-1.84,0.95-3.39,2.19-4.42c1.95-4.36,3.42-8.45,4.35-13.25l2.04-15.05c0.23-0.87,0.61-1.9,1.08-2.99
		c1.39-3.28,3.53-7.19,4.87-9.56l0.77-6.66h0.03c-0.23-0.12-0.42-0.28-0.67-0.4c-2.93-1.36-5.97-1.83-9.1-2.36
		C267.62,127.06,254.14,142.99,237.78,153.9z"/>
	<polygon class="st2" points="279.89,136.13 279.39,141.07 281.86,119.6 281.7,120.79 	"/>
	<path class="st2" d="M283.99,111.93c2.13,18.37,6.3,39.7-1.6,57.4c-1.21,2.7-3.39,3.72-5.16,5.81
		c-5.8,6.85-14.14,22.64-25.73,19.14l-2.37,3.24l-1.53,1.13c-1.13,0.81-2.54,1.27-3.93,1.44l-2.12,0.13l-0.85-0.15
		c-3.05,3.79-8.05,5.35-12.9,3.95l-1.62-0.53l-0.39-0.19c-4.72,4.26-11.79,4.38-16.75,0.44c-0.94,0.51-1.92,0.85-2.92,1.06
		c-0.96,4.29-2.38,8.45-4.32,12.4l47.76,1.28c10.64,0.16,21.84-0.11,31.17-5.83c12.7-7.78,11.28-28.63,11.77-39.85l-0.43-41.43
		C291.62,123.93,290.43,116.09,283.99,111.93z"/>
	<path class="st2" d="M268.52,61.41c5.31,9.88,7.73,20.61,7.11,32.41c-0.21,3.99-0.84,7.88-1.76,11.69
		c7.76-4.32,14.03-7.95,17.01-16.77c2.81-8.31-0.15-20.54-8.4-25.22C277.51,60.7,273.28,61.17,268.52,61.41z"/>
	<path class="st2" d="M244.92,40.29l0.32,0.31l0.26,0.25l0.2,0.07c0,0.01,0,0.02,0,0.02l0.03,0.01l4.99,1.38l5.1,3.19l4.51,3.89
		c0.99,1.17,1.87,2.37,2.77,3.56c0.53-0.26,1.04-0.51,1.48-0.74c8.72-4.58,20.58-10.63,22.07-21.18
		c1.33-9.37-7.44-16.55-16.21-18.79c-14.66-3.74-33.3,3.73-36.07,18.68c-0.16,1.61-0.98,2.97-2.13,4l7.22,1.95L244.92,40.29z"/>
	<polygon class="st2" points="263.94,53.5 263.85,53.5 263.92,53.5 	"/>
	<path class="st2" d="M245.73,41.07c0,0.01,0.01,0.03,0.01,0.04c0,0,0-0.03,0-0.03L245.73,41.07z"/>
	<path class="st2" d="M183.89,16.02l0.09-0.14c-0.26-0.21-0.5-0.44-0.77-0.65C183.43,15.5,183.67,15.74,183.89,16.02z"/>
	<polygon class="st2" points="187.15,21.25 187.03,21.13 187.05,21.15 	"/>
	<path class="st3" d="M140.74,92.41L140,91.35c-2.23-5.48,3.05-7.7,7.97-8.83c0.84-0.95,1.79-2.01,2.23-2.5
		c13.27-14.96,30.1-26.76,46.69-33.82c-25.46,3.1-53.55,15.37-75.38,34.87c-6.72,6.01-12.32,12.39-16.93,18.89
		c8.99,3.87,17.62,8.62,26.2,13.58c0.49-1.61,1.06-3.27,1.76-5.04C134.42,103.26,137.18,97.85,140.74,92.41z"/>
	<path class="st3" d="M229.54,138.77c20.85-18.63,32.13-40.8,30.18-59.29c-0.05-0.5-0.17-0.98-0.24-1.48
		c-2.73,10.72-9.29,22.4-19.25,33.62c-0.75,0.84-1.53,1.65-2.3,2.46c-0.46,1.97-0.91,3.94-1.49,5.88c-0.56,1.89-3.05,2.92-5.06,2.74
		c-0.23-0.02-0.37-0.12-0.57-0.16c-3.21,3.07-5.25,6.01-17.11,15.14c-0.3,0.44-0.57,0.93-0.91,1.34c-2.22,2.73-7.36,5.47-10.92,3.18
		c-0.2-0.13-0.36-0.27-0.55-0.4c-4.49,2.31-9,4.26-13.46,5.87c3.98,3.35,7.57,7.04,10.52,11.27c4.28-2.89,9.07-5.07,13.97-7.13
		C218.36,147.9,224.15,143.58,229.54,138.77z"/>
	<path class="st3" d="M24.92,148.24c1.05,15.71,13.85,35.86,36.55,50.37c40.74,26.03,88.79,26.34,106.27,11.55
		c4.14-3.5,6.4-7.7,6.97-12.69c-6.35-0.58-13.26-1.7-18.01-6.14c-2.46-2.31-1.42-6.35,0.67-8.54c2.69-2.83,6.06-2.78,9.55-1.93
		c-2.5,1.23-6.68,2.36-7.14,5.59l-0.04,0.5l0.03,0.53l0.09,0.57l-0.01-0.19l0-0.08l0.06,0.02l0.15,0.1l0.57,0.33
		c0.67,0.3,1.37,0.53,2.07,0.77c-0.02-0.26-0.12-0.49-0.11-0.76c0.12-3.16,2.51-5.7,5.32-5.66c2.64,0.04,4.67,2.37,4.81,5.27
		c0.26-0.48,0.53-0.95,0.9-1.32c-4.1-14.14-17.72-29.78-37.26-42.27c-20.02-12.79-41.3-19.62-59.87-21.59l-0.02,0.08
		c-1.68,5.7-5.38,12.37-12.59,11.25c-1.63-0.25-3.05-1.53-3.92-2.81l-0.51-1.01l-0.59,0.24c-6.2,2.02-12.91-0.1-17.06-4.6
		c-3.82,1.46-7.12,3.3-9.76,5.53C26.79,135.78,24.45,141.31,24.92,148.24z"/>
	<path class="st3" d="M65.27,122.73c0.07,0,0.14-0.01,0.22-0.01c3.65,0,6.75,0.93,7.93,2.21c0.69-0.82,1.33-1.66,1.94-2.41
		c-3.05-0.29-6.03-0.47-8.91-0.5C66.11,122.27,65.72,122.51,65.27,122.73z"/>
	<path class="st3" d="M57.23,124.28c-2.51,0-4.78-0.37-6.58-0.96c-0.08,0.02-0.16,0.03-0.24,0.05c1.7,1.03,3.68,1.59,5.44,1.41
		c0.79-0.08,1.62-0.28,2.45-0.44c0.05-0.03,0.09-0.07,0.14-0.1C58.03,124.25,57.64,124.28,57.23,124.28z"/>
	<path class="st3" d="M66.22,129.43c0.24-0.01,0.46-0.07,0.69-0.1c-0.29,0.02-0.6,0.03-0.9,0.04
		C66.1,129.38,66.13,129.44,66.22,129.43z"/>
	<polygon class="st3" points="59.04,129.35 58.98,129.23 58.89,129.15 58.93,129.22 	"/>
	<path class="st4" d="M66.76,215.27c29.07,10.63,62.32,29.56,94.28,18.48c12.08-4.19,24.33-15.74,26.68-28.37
		c0.18-0.95,0.28-1.93,0.42-2.9c-2.18-0.47-4.33-1.73-6.37-3.04c-1.76-1.13-2.51-1.6-4.44-1.75c-0.85-0.07-1.72-0.14-2.6-0.22
		c-0.58,5-2.84,9.2-6.97,12.69c-17.48,14.79-65.53,14.48-106.27-11.55c-22.7-14.51-35.5-34.65-36.55-50.37
		c-0.46-6.93,1.87-12.47,7.13-16.92c2.64-2.23,5.93-4.08,9.76-5.53c-1.76-1.91-3.1-4.2-3.67-6.86c-0.22-1.03-0.26-2.03-0.21-3.02
		c-12.74,6.95-21.86,18.22-23.41,32.96c-1.71,16.32,5.91,32.93,18.6,43.62c11.01,9.28,23.47,12.18,37.24,15.55v1.98
		c-7.88,0.01-15.82,0.67-23.46-1.21c-3.83-0.94-7.49-2.29-10.99-3.94c4.72,3.95,9.88,7.74,15.43,11.28
		c3.85,2.46,7.79,4.69,11.78,6.81c11.71,6.21,23.87,10.88,35.93,14.05c-2.25-1.09-4.48-2.22-6.67-3.43L66.76,215.27z"/>
	<path class="st4" d="M136.36,144.24c19.54,12.49,33.16,28.13,37.26,42.27c-0.37,0.38-0.64,0.85-0.9,1.32
		c-0.15-2.9-2.17-5.23-4.81-5.27c-2.81-0.04-5.21,2.5-5.32,5.66c-0.01,0.27,0.09,0.5,0.11,0.76c3.24,1.1,6.72,1.62,10.09,1.92
		c3.05,0.28,5.64-0.95,8.71-0.14c2.44,0.64,4.51,2.07,6.72,3.19l0.6,0.27c0.09-11.4-3.24-22.78-12.86-30.34l-6.87-3.94l-64.23-36.58
		c-15.7-8.59-34.29-16.39-52.41-12.88c-0.11,0.45-0.22,0.9-0.49,1.35c-1.09,1.77-5.03,2.31-5.46,4.45
		c-0.59,2.88,1.34,5.51,3.92,7.07c0.08-0.02,0.16-0.03,0.24-0.05c1.79,0.59,4.07,0.96,6.58,0.96c0.41,0,0.8-0.03,1.2-0.05
		c-0.05,0.03-0.09,0.07-0.14,0.1c2.07-0.41,4.13-0.62,5.43,1.65c0.67,1.17,0.67,3.23,2.3,3.39c0.3-0.01,0.61-0.02,0.9-0.04
		c2.68-0.37,4.76-2.32,6.5-4.4c-1.18-1.28-4.27-2.21-7.93-2.21c-0.07,0-0.14,0.01-0.22,0.01c0.45-0.22,0.84-0.46,1.17-0.71
		c2.88,0.03,5.86,0.21,8.91,0.5c0.03-0.03,0.06-0.07,0.08-0.1l0.6,0.18c0.15,0.02,0.31,0.05,0.46,0.06
		C95.06,124.62,116.33,131.45,136.36,144.24z"/>
	<polygon class="st4" points="231.08,192.29 231.23,192.31 231.35,192.29 231.29,192.27 231.08,192.29 	"/>
	<path class="st2" d="M221.88,109.81l-0.04,0.28c0.03-0.08,0.08-0.11,0.11-0.18C221.93,109.88,221.91,109.84,221.88,109.81z"/>
	<polygon class="st2" points="236.67,78.97 236.58,78.92 236.61,78.95 	"/>
	<path class="st2" d="M204.07,125.56l0.74,1.19l0.31,0.49l0.02-0.05l0.31-0.85l1.39-3.74l3.67-14.84c0.48-4.25-2.11-9.44,2.07-12.56
		c5.98-4.46,13.99,3.56,17.32,7.53l0.72,1.02l0.94-3.32l1.72-16.6l-0.26-2.85c0-3.25-1.13-7.86,2.93-9.38
		c1.9-0.71,4.05-0.09,5.56,1.16c0.93,0.77,1.95,1.5,2.61,2.51c0.47,0.71,1.02,1.43,1.61,2.15l-0.46-21.92l-0.6-14.8
		c-5.18,1.92-13.73,5.28-18.76,7.39c-2.51,1.05-5.01,2.12-7.53,3.11c-4.83,1.9-9.7,3.67-14.7,4.87c4.01,4.08,7.04,9.6,8.24,14.99
		c0.98,4.39-3.54,5.23-6.58,4.17c-3.8-1.32-6.39-3.07-10.65-3.21l-4.05,0.02l-7.42,1.23c2.78,3.41,6.91,9.27,6.35,13.39
		c-0.88,6.48-7.27,3.97-11.33,3.51c-2.62-0.29-5.28-0.32-7.9,0.02l-4.22,0.71l-6.99,1.76l0.27,0.25l8.12,7.36l2.24,3.36
		c2.83,7.85-7.01,8.05-11.48,9.16c-3.72,0.92-8.76,3.14-8.57,7.65c0.08,1.87,0.77,3.5,1.67,5.04c6.31,3.51,12.96,6.92,19.41,10.62
		c1.1,0.17,2.21,0.31,3.39,0.32l3.08-0.22l2.57-0.66l1.21-0.62l0.23-0.72l0.67-2.74c1.22-5.59,1.35-17.49,9.98-17.19
		C197.88,114.49,201.34,121.3,204.07,125.56z"/>
	<path class="st4" d="M142.03,94.26l-1.28-1.84c-3.21,4.89-6.09,10.71-8.21,16.09c-0.69,1.76-1.27,3.42-1.76,5.04
		c0.06,0.03,0.11,0.06,0.17,0.1c1.53,0.88,3.05,1.77,4.57,2.66c0.22-0.96,0.48-1.92,0.87-2.9c1.67-4.21,4.99-7.98,9-10.24l2.76-1.42
		l0.36-0.18l0.74-0.23l-0.54-0.53L142.03,94.26z"/>
	<path class="st4" d="M195.38,135.91c-0.71,3.76-1.95,7.62-4.98,9.68c-1,0.67-2.03,1.14-3.04,1.67c0.17,0.14,0.33,0.27,0.5,0.41
		c4.47-1.61,8.98-3.57,13.46-5.87C198.83,140.09,197.03,138.13,195.38,135.91z"/>
	<path class="st4" d="M259.48,78c0.07,0.5,0.19,0.97,0.24,1.48c1.95,18.5-9.34,40.66-30.18,59.29c-5.38,4.81-11.18,9.13-17.19,13.04
		c5.91-2.49,11.95-4.82,17.36-8.04c15.13-9.03,29.59-23.48,34.75-40.3c4.47-14.57,3.32-29.14-2.95-42.65
		c-0.87-1.46-1.05-2.16-1.94-3.9c-0.85-1.56-1.71-3.11-2.7-4.63l-3.52-4.05l-4.08-3.76l-0.17-0.16l-3.35-3.23c0,0,0,0.02,0,0.03
		c2.3,13.07,8.68,33.03,7.26,47.37c0.07,0.8-0.02,1.61-0.32,2.42c-0.21,1.24-0.48,2.45-0.82,3.62c-0.87,2.97-4.99-0.19-5.62-1.17
		l-3.05-5l-1.35-2.22l-0.1-0.17c-0.1,1.56-0.23,3.12-0.36,4.68c-0.03,0.31-0.05,0.62-0.07,0.93c-0.62,7.59-1.63,15.12-3.37,22.52
		c0.77-0.82,1.55-1.62,2.3-2.46C250.19,100.39,256.74,88.72,259.48,78z"/>
	<path class="st4" d="M121.51,81.08c21.82-19.5,49.91-31.77,75.38-34.87c-16.59,7.06-33.42,18.86-46.69,33.82
		c-0.44,0.49-1.38,1.55-2.23,2.5c0.08-0.02,0.15-0.04,0.23-0.06c2.33-0.52,4.56-0.8,5.82-1.07l12.88-2.32l2.24-0.4l4.68-0.12
		c-0.81-0.86-2.06-1.76-3.27-2.71c-2.57-2.04-4.9-4.37-2.1-7.35c2.86-3.05,7.5-3.68,11.65-4.5c2.86-0.56,5.76-0.9,8.67-1.03
		c1.44-0.06,2.87,0.03,4.3,0.08c0.82,0.03,1.64-0.03,2.46,0.05l4.69,0.87l-0.11-0.22l-1.46-2.12c-0.68-0.93-1.73-1.69-2.81-2.44
		c-1.44-1-2.9-1.97-3.59-3.22c-1.03-1.86-0.28-4.44,1.99-5.01l48.74-10.62l-2.93-0.58l-1.41-0.28l-19.75-2.44
		c-29.94-0.19-59.23,8.31-84.02,23.95c-11.88,7.49-22.89,16.57-31.26,27.66l-5.18,8.86c2.06,0.78,4.11,1.59,6.14,2.47
		C109.18,93.47,114.79,87.08,121.51,81.08z"/>
	<path class="st4" d="M230.81,122.55c-0.41-0.09-0.84-0.17-1.18-0.34c-2.46-1.2-2.85-4.28-4.05-6.63c-0.56-1.1-1.17-2.18-1.84-3.23
		c-0.54-0.85-1.13-1.68-1.79-2.44c-0.03,0.07-0.08,0.1-0.11,0.18l-0.6,4.49l-0.07,0.53c-0.96,5.28-2.23,11.87-4.67,17.51
		c-0.79,1.82-1.74,3.5-2.8,5.05C225.56,128.56,227.6,125.62,230.81,122.55z"/>
	<polygon class="st4" points="51.42,69.17 51.4,69.11 51.3,68.95 	"/>
	<polygon class="st4" points="56.68,58.12 56.81,57.95 56.73,58.01 56.64,58.13 	"/>
	<path class="st4" d="M62.9,74.19c0-1.65-2.52-3.07-6.11-3.71c0.58,0.03,1.16,0.07,1.76,0.07c7.25,0,13.17-2.33,13.17-5.19
		c0-2.12-3.27-3.95-7.91-4.75c0.55,0.03,1.1,0.07,1.67,0.07c7.83,0,14.21-2.52,14.21-5.6c0-2.26-3.45-4.21-8.38-5.09
		c0.54,0.03,1.08,0.07,1.64,0.07c6.72,0,12.19-2.16,12.19-4.8c0-1.35-1.43-2.57-3.72-3.44c0.19,0,0.38,0.02,0.57,0.02
		c5.7,0,10.35-1.83,10.35-4.08c0-1.46-1.97-2.73-4.9-3.45c0.39-1.31,0.85-2.58,1.68-3.65c3.37-4.32,9.66-5.84,13.99-8.98
		c2.64-1.91,4.58-4.44,6.59-6.98l-0.42-0.3l-8,3.93c-5.69,2.35-12.62,3.52-17.1,8.03c-2.03,2.05-3.09,4.78-4.29,7.39
		c-0.32,0.03-0.62,0.08-0.93,0.11c-0.23,3.16-0.32,6.33-3.49,8.25c-4.29,2.6-9.84,1.32-14.62,2.64c-0.26,0.07-0.53,0.12-0.79,0.21
		l0.74,0.56l0.25,0.19c1.05,0.83,2.03,1.74,2.8,2.7c1.07,0.48,2.37,0.87,3.84,1.14c-0.73-0.05-1.47-0.09-2.24-0.09
		c-0.29,0-0.57,0.03-0.86,0.03c1.1,1.94,1.08,4.09-1.53,6.38c-1.08,0.95-3.36,1.06-5.03,1.47c0.68,1,1.29,1.91,1.69,2.82
		c0.05,0.01,0.1,0.02,0.15,0.03c-0.05,0-0.09,0-0.14,0c0.72,1.63,0.78,3.27-0.66,5.38c-1.04,1.52-3.03,2.12-4.63,3.07l-1.85,1.08
		l-0.22,0.17c0.36,0.07,0.69,0.16,1.07,0.22c-0.32-0.01-0.62-0.04-0.95-0.04c-0.09,0-0.18,0.01-0.28,0.01l0.58,0.54
		c1.21,1.75,2.63,3.6,2.34,5.69c-0.09,0.67-0.37,1.27-0.72,1.83C59.27,77.84,62.9,76.18,62.9,74.19z"/>
	<polygon class="st4" points="47.97,81.55 48.06,81.74 48.01,81.58 	"/>
	<path class="st4" d="M60.71,89.13c0-1.53-2.17-2.84-5.33-3.54c2.94-0.72,4.92-2,4.92-3.46c0-1.63-2.46-3.03-5.99-3.68
		c-0.74,1.08-1.8,2.01-2.89,2.81l-2.37,1.07l-0.33,0.22l1.02,1c2.58,2.31,5.63,4.82,4.61,7.94c1.74-0.27,3.5-0.45,5.27-0.58
		C60.29,90.37,60.71,89.77,60.71,89.13z"/>
	<path d="M299.58,172.56l-2.6-41.53c-0.7-5.39-1.76-11.3-4.85-15.91c-0.94-1.41-2.06-2.7-3.44-3.81c-3.11-2.51-6.51-4.16-10.08-4.49
		c2.58-1.22,5.12-3.05,7.41-4.38c2.22-1.3,4.34-3.66,6.11-6.17c1.39-1.97,2.59-4.04,3.34-5.78c3.91-9.12,2.28-19.37-3.34-26.84
		c-3.24-4.31-7.8-7.7-13.41-9.4c5.15-3.07,9.93-6.72,13.41-11.43c0.7-0.95,1.43-1.87,2.01-2.92c6.44-11.6,1.7-24.88-8.94-32.6
		c-13.95-10.14-32.52-9-46.79-0.89c-4.37,2.48-8.35,5.6-11.65,9.28c-1.12,1.24-1.93,2.61-2.64,4.03c-0.15,0.31-0.28,0.63-0.42,0.94
		c-0.24-1.15-0.54-2.28-0.87-3.4c-1.14-3.78-2.91-7.32-5.86-10.26c-0.23-0.23-0.51-0.37-0.75-0.59c-7.27-6.51-18.28-6.14-25.43,0
		c-1.31,1.12-2.52,2.37-3.52,3.88l-3.3,5.6l-0.09,0.14c-0.22-0.28-0.46-0.52-0.69-0.79c-2.81-3.37-6.05-6.09-10.13-7.96
		c-0.71-0.33-1.5-0.57-2.24-0.87c-12.54-5.06-28.56-6.15-40.9,0c-1.64,0.82-3.24,1.71-4.73,2.79c-2.55,1.85-6.14,3.8-7.48,6.04
		c-0.46-0.69-0.97-1.37-1.56-2.17c-0.66-0.89-1.75-2.1-2.56-2.86c0.03-0.01,0.06-0.02,0.08-0.03l-0.12,0
		c-1.17-1.1-2.91-1.83-4.39-2.64c-0.76-0.41-1.57-0.79-2.41-1.12c-1.4-0.55-2.88-1.03-4.52-1.36c-7.78-1.57-20-4.14-27.92-1.61
		c-1.75,0.56-3.39,2.29-5.36,2.23L34.62,4.96c-6.44,0.99-14.83,5.26-15.51,12.3l-2.07,93.04c-10.02,10-16.53,23.14-17.01,37.75
		c-0.65,20.03,9.93,39.56,26.46,51.3c2.96,2.1,6.1,3.96,9.41,5.51c3.5,1.65,7.17,3,10.99,3.94c7.63,1.88,15.58,1.22,23.46,1.21
		v-1.98c-13.77-3.37-26.23-6.26-37.24-15.55c-12.68-10.69-20.3-27.29-18.6-43.62c1.54-14.74,10.67-26.02,23.41-32.96
		c-0.05,0.99-0.01,1.99,0.21,3.02c0.57,2.66,1.91,4.95,3.67,6.86c4.15,4.5,10.86,6.61,17.06,4.6l0.59-0.24l0.51,1.01
		c0.87,1.28,2.29,2.56,3.92,2.81c7.22,1.12,10.92-5.54,12.59-11.25l-0.44-0.14l-0.6-0.18c-0.03,0.03-0.06,0.07-0.08,0.1
		c-0.6,0.76-1.25,1.59-1.94,2.41c-1.74,2.08-3.82,4.03-6.5,4.4c-0.23,0.03-0.45,0.09-0.69,0.1c-0.09,0-0.13-0.06-0.21-0.06
		c-1.63-0.15-1.63-2.22-2.3-3.39c-1.3-2.27-3.36-2.06-5.43-1.65c-0.83,0.16-1.66,0.36-2.45,0.44c-1.75,0.19-3.73-0.38-5.44-1.41
		c-2.58-1.56-4.51-4.2-3.92-7.07c0.44-2.15,4.37-2.68,5.46-4.45c0.28-0.45,0.39-0.9,0.49-1.35c18.12-3.51,36.71,4.29,52.41,12.88
		l64.23,36.58l6.87,3.94c9.61,7.56,12.95,18.94,12.86,30.34l-0.6-0.27c-2.21-1.13-4.28-2.55-6.72-3.19
		c-3.07-0.81-5.66,0.42-8.71,0.14c-3.37-0.3-6.85-0.82-10.09-1.92c-0.7-0.24-1.4-0.47-2.07-0.77l-0.57-0.33l-0.15-0.1l-0.06-0.02
		l0,0.08l0.01,0.19l-0.09-0.57l-0.03-0.53l0.04-0.5c0.46-3.23,4.64-4.36,7.14-5.59c-3.49-0.85-6.86-0.9-9.55,1.93
		c-2.08,2.19-3.13,6.24-0.67,8.54c4.75,4.44,11.66,5.56,18.01,6.14c0.88,0.08,1.75,0.15,2.6,0.22c1.93,0.15,2.68,0.62,4.44,1.75
		c2.04,1.31,4.19,2.57,6.37,3.04c-0.14,0.97-0.24,1.95-0.42,2.9c-2.35,12.63-14.59,24.18-26.68,28.37
		c-31.96,11.09-65.2-7.84-94.28-18.48l25.6,18.32c2.19,1.2,4.42,2.33,6.67,3.43c12.97,6.29,26.94,10.72,41.31,12.54
		c20.45,2.59,41.44-6.27,54.4-21.36c0.02-0.02,0.03-0.04,0.04-0.05l54.66,0.27c12.69-0.22,25.71-1.28,36.49-8.6
		c0.32-0.22,0.58-0.46,0.89-0.69c0.07-0.05,0.14-0.11,0.21-0.16C301.06,208.32,299.52,187.75,299.58,172.56z M58.98,129.23
		l0.06,0.12l-0.11-0.13l-0.03-0.07L58.98,129.23z M282.18,110.85c0.25,0.12,0.43,0.27,0.67,0.4h-0.03l-0.77,6.66
		c0.01-0.03,0.04-0.06,0.05-0.09l-0.25,1.79l-2.47,21.46l-0.45,11.29l-0.25,0.7c0,0.01,0,0.01,0,0.02l-3.64,10.13l-0.05,0.08
		c-0.65,1.28-1.44,2.43-2.41,3.33c-3.39,3.14-6.39,7.35-9.83,10.9c-0.02,0.02-0.04,0.04-0.05,0.06c-2.08,2.15-4.33,4.04-6.91,5.31
		l-0.73,0.22l-0.16,0l-0.04-0.03l0.05-0.02l0.04-0.02l-0.03-0.05l-0.15-0.15l-0.29-0.32c-2.46-2.45-5.44-4.17-8.86-1.83l-2.02,2.33
		l-2.09,3.96l-0.13,0.17l-0.96-0.43l-3-0.84c-4.06,0.07-5.16,2.2-6.72,5.31c-0.16,0.31-0.32,0.68-0.36,0.94
		c-1.65-0.71-3.43-2.23-5.18-2.45c-4.1-0.52-5.6,1.93-7.24,4.96c-1.63,3.02-4.39-2.54-5.39-3.06c-1.99-1.03-3.55-0.97-4.89-0.28
		c0-1.62-0.01-3.23-0.14-4.84c-0.31-4.11-1.08-8.16-2.16-12.12c12.31-2.59,21.91-13.41,32.43-20.43
		c16.36-10.91,29.84-26.83,35.3-45.41C276.21,109.01,279.26,109.48,282.18,110.85z M231.35,192.29l-0.11,0.02l-0.16-0.01l0,0
		l0.21-0.02L231.35,192.29z M282.48,63.52c8.25,4.68,11.21,16.91,8.4,25.22c-2.99,8.82-9.25,12.45-17.01,16.77
		c0.93-3.8,1.55-7.7,1.76-11.69c0.62-11.81-1.8-22.53-7.11-32.41C273.28,61.17,277.51,60.7,282.48,63.52z M234.39,30.94
		c2.77-14.95,21.41-22.42,36.07-18.68c8.77,2.24,17.54,9.41,16.21,18.79c-1.5,10.55-13.35,16.6-22.07,21.18
		c-0.44,0.23-0.95,0.48-1.48,0.74c-0.89-1.19-1.78-2.39-2.77-3.56l-4.51-3.89l-5.1-3.19l-4.99-1.38l-0.03-0.01c0-0.01,0-0.02,0-0.02
		l-0.2-0.07l-0.26-0.25l-0.32-0.31l-5.44-3.4l-7.22-1.95C233.41,33.91,234.23,32.54,234.39,30.94z M263.94,53.5l-0.03,0h-0.07
		L263.94,53.5z M187.15,21.25l-0.1-0.1l-0.01-0.02L187.15,21.25z M47.97,81.55l0.04,0.03l0.04,0.16L47.97,81.55z M45.25,59.55
		l-2.12,1.4c-4.21,3.5-6.08,8.53-3.68,13.39l-0.44,0.36l-1.35,1.71c-2.53,3.7-2.06,8.49,0.57,11.98c-2.68,2.45-3.54,5.79-3.13,9.18
		c-1.95,0.95-3.84,1.99-5.68,3.11l-1.54-80.61c0-0.69,0.15-1.37,0.36-2.04c1.61-5.23,9.77-5.9,14.34-6.12
		c8.93-0.42,22.08,2.56,30.63-1.08c1.18-0.5,2.59-2.05,3.93-2.17c9.52-0.89,20.1-1.14,29.38,1.48c0.16,0.05,0.28,0.13,0.44,0.18
		l-2.55-0.02c-6.27,0.96-12.26,3.24-18.13,5.61c-6.81,2.75-12.5,6.25-14.99,13.24l-0.79,3.29l-0.24,2.01l-0.78,0.06l-3.73-0.05
		c-4.67,0.15-9.64,0.35-13.54,3.2c-3.82,2.79-4.64,7.28-2.77,11.19C46.04,51.39,44.34,55.48,45.25,59.55z M70.08,35.65l-0.02,0.11
		l0.01-0.08L70.08,35.65z M58.76,45.67l-0.03,0.04l-0.1,0.11l0-0.04L58.76,45.67z M56.81,57.95l-0.13,0.17l-0.04,0.01l0.1-0.12
		L56.81,57.95z M51.42,69.17l-0.12-0.22l0.1,0.17L51.42,69.17z M67.68,90.76c-2.7-0.14-5.39-0.05-8.06,0.15
		c-1.77,0.13-3.53,0.3-5.27,0.58c1.01-3.13-2.04-5.63-4.61-7.94l-1.02-1l0.33-0.22l2.37-1.07c1.09-0.8,2.15-1.72,2.89-2.81
		c0.06-0.08,0.12-0.17,0.17-0.25c0.35-0.56,0.63-1.16,0.72-1.83c0.29-2.09-1.13-3.94-2.34-5.69l-0.58-0.54l-0.05-0.05l0.2-0.15
		l0.22-0.17l1.85-1.08c1.6-0.95,3.59-1.55,4.63-3.07c1.43-2.11,1.38-3.75,0.66-5.38c0-0.01-0.01-0.02-0.01-0.03
		c-0.41-0.91-1.01-1.83-1.69-2.82c1.67-0.42,3.94-0.52,5.03-1.47c2.61-2.29,2.63-4.44,1.53-6.38c-0.21-0.37-0.46-0.73-0.74-1.09
		c-0.77-0.96-1.75-1.87-2.8-2.7l-0.25-0.19l-0.74-0.56c0.26-0.09,0.53-0.14,0.79-0.21c4.77-1.33,10.32-0.05,14.62-2.64
		c3.17-1.92,3.26-5.09,3.49-8.25c0.18-2.49,0.44-4.97,2.36-6.83c7.65-7.41,18.91-11.31,28.82-15.37c3.34,1.89,5.57,4.75,7.81,8.01
		l0.67,0.86l-0.5,1.59l1.53-2.14c5.19-6.68,10.33-10.1,19.28-10.97c13.85-1.36,31.05,1.64,38.32,14.48
		c2.17,3.84,5.82,9.16,10.92,5.37c5.44-4.04,5.26-14.81,13.35-15.9c9.37-1.27,10.1,10.6,10.38,17.03c0,0.27,0.12,0.51,0.16,0.77
		c-36.91-2.46-75.89,10.7-103.51,33.19c-9.97,8.12-17.17,18.7-24.54,29.14C78.78,91.88,73.34,91.06,67.68,90.76z M148.5,101.57
		l-0.36,0.18l-2.76,1.42c-4.01,2.26-7.33,6.02-9,10.24c-0.39,0.98-0.65,1.94-0.87,2.9c-1.52-0.89-3.05-1.78-4.57-2.66
		c-0.06-0.03-0.11-0.06-0.17-0.1c-8.58-4.96-17.22-9.7-26.2-13.58c-2.03-0.87-4.08-1.69-6.14-2.47l5.18-8.86
		c8.36-11.09,19.37-20.16,31.26-27.66c24.8-15.64,54.08-24.14,84.02-23.95l19.75,2.44l1.41,0.28l2.93,0.58l-48.74,10.62
		c-2.28,0.57-3.02,3.15-1.99,5.01c0.69,1.24,2.15,2.21,3.59,3.22c1.07,0.75,2.13,1.51,2.81,2.44l1.46,2.12l0.11,0.22l-4.69-0.87
		c-0.82-0.08-1.64-0.02-2.46-0.05c-1.43-0.05-2.87-0.15-4.3-0.08c-2.91,0.13-5.82,0.46-8.67,1.03c-4.15,0.82-8.79,1.45-11.65,4.5
		c-2.8,2.98-0.47,5.31,2.1,7.35c1.2,0.95,2.46,1.85,3.27,2.71l-4.68,0.12l-2.24,0.4l-12.88,2.32c-1.26,0.27-3.48,0.55-5.82,1.07
		c-0.08,0.02-0.15,0.04-0.23,0.06c-4.92,1.13-10.2,3.34-7.97,8.83l0.74,1.06l1.28,1.84l6.67,6.55l0.54,0.53L148.5,101.57z
		 M181.95,131.47l-0.67,2.74l-0.23,0.72l-1.21,0.62l-2.57,0.66l-3.08,0.22c-1.17-0.01-2.28-0.15-3.39-0.32
		c-6.45-3.7-13.11-7.11-19.41-10.62c-0.9-1.54-1.59-3.17-1.67-5.04c-0.19-4.51,4.84-6.73,8.57-7.65c4.47-1.11,14.31-1.31,11.48-9.16
		l-2.24-3.36l-8.12-7.36l-0.27-0.25l6.99-1.76l4.22-0.71c2.62-0.34,5.28-0.31,7.9-0.02c4.05,0.46,10.45,2.97,11.33-3.51
		c0.56-4.12-3.57-9.98-6.35-13.39l7.42-1.23l4.05-0.02c4.26,0.14,6.85,1.9,10.65,3.21c3.04,1.05,7.57,0.22,6.58-4.17
		c-1.21-5.39-4.24-10.91-8.24-14.99c5-1.2,9.87-2.96,14.7-4.87c2.52-0.99,5.02-2.06,7.53-3.11c5.03-2.11,13.57-5.47,18.76-7.39
		l0.6,14.8l0.46,21.92c-0.59-0.72-1.14-1.43-1.61-2.15c-0.66-1-1.68-1.74-2.61-2.51c-1.52-1.25-3.66-1.87-5.56-1.16
		c-4.06,1.52-2.93,6.13-2.93,9.38l0.26,2.85l-1.72,16.6l-0.94,3.32l-0.72-1.02c-3.33-3.97-11.34-11.99-17.32-7.53
		c-4.18,3.12-1.59,8.3-2.07,12.56l-3.67,14.84l-1.39,3.74l-0.31,0.85l-0.02,0.05l-0.31-0.49l-0.74-1.19
		c-2.73-4.26-6.19-11.06-12.14-11.28C183.3,113.97,183.17,125.87,181.95,131.47z M236.67,78.97l-0.06-0.02l-0.03-0.03L236.67,78.97z
		 M187.85,147.67c-0.16-0.14-0.33-0.27-0.5-0.41c1.02-0.53,2.05-0.99,3.04-1.67c3.03-2.05,4.26-5.92,4.98-9.68
		c1.66,2.22,3.46,4.18,5.94,5.89c0.19,0.13,0.36,0.27,0.55,0.4c3.57,2.29,8.7-0.44,10.92-3.18c0.33-0.41,0.6-0.89,0.91-1.34
		c1.06-1.55,2.01-3.23,2.8-5.05c2.44-5.64,3.71-12.24,4.67-17.51l0.07-0.53l0.6-4.49l0.04-0.28c0.03,0.03,0.05,0.07,0.07,0.1
		c0.66,0.77,1.25,1.59,1.79,2.44c0.67,1.04,1.27,2.13,1.84,3.23c1.2,2.35,1.59,5.43,4.05,6.63c0.34,0.16,0.77,0.24,1.18,0.34
		c0.2,0.05,0.34,0.14,0.57,0.16c2.01,0.18,4.49-0.85,5.06-2.74c0.58-1.94,1.03-3.91,1.49-5.88c1.74-7.4,2.75-14.93,3.37-22.52
		c0.03-0.31,0.05-0.62,0.07-0.93c0.13-1.56,0.26-3.11,0.36-4.68l0.1,0.17l1.35,2.22l3.05,5c0.64,0.98,4.76,4.14,5.62,1.17
		c0.34-1.17,0.61-2.38,0.82-3.62c0.3-0.81,0.39-1.62,0.32-2.42c1.43-14.33-4.95-34.29-7.26-47.37c0-0.01-0.01-0.03-0.01-0.04
		l0.01,0.01l3.35,3.23l0.17,0.16l4.08,3.76l3.52,4.05c0.99,1.52,1.85,3.08,2.7,4.63c0.89,1.74,1.07,2.44,1.94,3.9
		c6.26,13.51,7.42,28.08,2.95,42.65c-5.16,16.82-19.62,31.26-34.75,40.3c-5.41,3.23-11.45,5.56-17.36,8.04
		c-4.9,2.06-9.69,4.25-13.97,7.13C195.42,154.71,191.83,151.01,187.85,147.67z M280.75,212.65c-9.33,5.72-20.53,5.99-31.17,5.83
		l-47.76-1.28c1.94-3.96,3.36-8.12,4.32-12.4c0.99-0.21,1.97-0.55,2.92-1.06c4.96,3.94,12.03,3.82,16.75-0.44l0.39,0.19l1.62,0.53
		c4.85,1.4,9.85-0.16,12.9-3.95l0.85,0.15l2.12-0.13c1.39-0.17,2.8-0.62,3.93-1.44l1.53-1.13l2.37-3.24
		c11.58,3.5,19.93-12.29,25.73-19.14c1.77-2.09,3.95-3.11,5.16-5.81c7.9-17.7,3.73-39.03,1.6-57.4c6.44,4.17,7.63,12,8.11,19.45
		l0.43,41.43C292.03,184.03,293.45,204.87,280.75,212.65z"/>
	<path class="st4" d="M276.11,130.45l-2.04,15.05c-0.93,4.8-2.4,8.88-4.35,13.25c-1.24,1.03-2.13,2.59-2.19,4.42
		c-0.01,0.27,0.09,0.51,0.11,0.77c-0.55-0.18-1.08-0.4-1.69-0.41c-3.4-0.05-6.23,2.88-6.67,6.6c-1.28-1-2.83-1.6-4.52-1.63
		c-4.52-0.07-8.35,3.96-8.65,9.01c-1.32-1.62-3.21-2.65-5.35-2.68c-4.02-0.06-7.43,3.44-7.85,7.89c-1.19-1.19-2.74-1.95-4.48-1.97
		c-3.14-0.05-5.86,2.24-6.92,5.4c-1.05-1.16-2.47-1.92-4.08-1.94c-2.86-0.04-5.25,2.19-6.04,5.17c-0.79-1.59-2.18-2.69-3.88-2.92
		c0.12,1.61,0.14,3.23,0.14,4.84c1.34-0.68,2.9-0.75,4.89,0.28c1,0.52,3.75,6.08,5.39,3.06c1.64-3.03,3.14-5.48,7.24-4.96
		c1.75,0.22,3.53,1.74,5.18,2.45c0.04-0.26,0.2-0.63,0.36-0.94c1.56-3.11,2.67-5.24,6.72-5.31l3,0.84l0.96,0.43l0.13-0.17l2.09-3.96
		l2.02-2.33c3.42-2.34,6.4-0.61,8.86,1.83l0.29,0.32l0.15,0.15l0.03,0.05l-0.04,0.02l-0.05,0.02l0.04,0.03l0.16,0l0.73-0.22
		c2.59-1.27,4.83-3.17,6.91-5.31c0-0.04-0.01-0.07-0.01-0.11c0.02,0.01,0.04,0.04,0.06,0.05c3.44-3.55,6.44-7.76,9.83-10.9
		c0.97-0.9,1.76-2.05,2.41-3.33l0.05-0.08l3.64-10.13c0-0.01,0-0.01,0-0.02c0.17-0.47,0.26-0.96,0.28-1.46l0.42-10.52l0.5-4.93
		l1.81-15.34l0.16-1.19l0.25-1.79c-0.01,0.03-0.04,0.06-0.05,0.09c-1.34,2.36-3.48,6.28-4.87,9.56
		C276.72,128.56,276.34,129.58,276.11,130.45z"/>
	<polygon class="st3" points="423.05,109.23 369.7,109.23 369.7,123.26 387.59,123.26 387.59,166.04 405.14,166.04 405.14,123.26 
		423.05,123.26 	"/>
	<polygon class="st3" points="497.82,153.17 467.52,153.17 467.52,141.98 494.83,141.98 494.83,130.39 467.52,130.39 467.52,121.36 
		496.96,121.36 496.96,109.23 449.93,109.23 449.93,166.04 497.82,166.04 	"/>
	<polygon class="st3" points="635.28,143.79 626.36,109.23 603.27,109.23 603.27,166.04 617.65,166.04 617.65,122.72 628.73,166.04 
		641.7,166.04 652.83,122.72 652.83,166.04 667.17,166.04 667.17,109.23 644.15,109.23 	"/>
	<rect x="694.57" y="109.23" class="st3" width="17.59" height="56.81"/>
	<polygon class="st3" points="739.56,123.26 757.45,123.26 757.45,166.04 775,166.04 775,123.26 792.91,123.26 792.91,109.23 
		739.56,109.23 	"/>
	<polygon class="st3" points="869.15,121.36 869.15,109.23 822.11,109.23 822.11,166.04 870,166.04 870,153.17 839.7,153.17 
		839.7,141.98 867.02,141.98 867.02,130.39 839.7,130.39 839.7,121.36 	"/>
	<path class="st3" d="M947.72,158.79c2.01-3.07,3.03-6.43,3.03-10.06c0-3.11-0.77-5.91-2.27-8.41c-1.51-2.51-3.93-4.6-7.25-6.3
		c-3.32-1.69-8.81-3.37-16.48-5.03c-3.11-0.65-5.07-1.34-5.9-2.09c-0.85-0.73-1.27-1.53-1.27-2.44c0-1.24,0.52-2.3,1.55-3.16
		c1.03-0.87,2.57-1.3,4.62-1.3c2.47,0,4.42,0.58,5.82,1.73c1.42,1.17,2.34,3.03,2.78,5.58l16.55-0.97
		c-0.73-5.89-2.99-10.18-6.8-12.88c-3.81-2.7-9.35-4.05-16.61-4.05c-5.91,0-10.57,0.74-13.97,2.22c-3.4,1.5-5.94,3.53-7.63,6.12
		c-1.69,2.59-2.54,5.36-2.54,8.28c0,4.44,1.65,8.09,4.96,10.97c3.28,2.87,8.77,5.16,16.47,6.89c4.71,1.03,7.7,2.13,9,3.29
		c1.3,1.16,1.93,2.49,1.93,3.96c0,1.55-0.68,2.91-2.03,4.09c-1.36,1.18-3.29,1.76-5.79,1.76c-3.36,0-5.95-1.14-7.75-3.44
		c-1.11-1.43-1.85-3.49-2.21-6.2l-16.71,1.05c0.49,5.74,2.59,10.46,6.32,14.18c3.72,3.73,10.41,5.58,20.06,5.58
		c5.5,0,10.07-0.79,13.68-2.38C942.89,164.2,945.71,161.87,947.72,158.79z"/>
	<path class="st3" d="M569.1,146.04c-1.23-1.52-2.17-2.51-2.8-2.97c-0.97-0.7-2.49-1.4-4.58-2.1c2.61-0.58,4.66-1.34,6.16-2.23
		c2.34-1.43,4.19-3.28,5.54-5.57c1.34-2.29,2.01-5,2.01-8.16c0-3.61-0.87-6.68-2.63-9.19c-1.76-2.53-4.07-4.25-6.94-5.17
		c-2.86-0.94-7.01-1.4-12.43-1.4h-29.26v56.81h17.63v-23.05h1.55c1.6,0,3.04,0.44,4.3,1.31c0.94,0.67,2,2.14,3.19,4.38l9.38,17.37
		h19.84l-8.49-16.47C571.15,148.74,570.33,147.57,569.1,146.04z M556.71,129.69c-0.74,0.95-1.69,1.55-2.86,1.79
		c-2.3,0.51-3.85,0.77-4.64,0.77h-7.41V120.7h7.71c3.2,0,5.38,0.49,6.55,1.48c1.16,0.98,1.75,2.38,1.75,4.22
		C557.81,127.64,557.44,128.74,556.71,129.69z"/>
	<path class="st1" d="M549.51,120.7h-7.71v11.55h7.41c0.79,0,2.34-0.25,4.64-0.77c1.17-0.24,2.12-0.83,2.86-1.79
		c0.73-0.95,1.1-2.05,1.1-3.29c0-1.84-0.58-3.24-1.75-4.22C554.9,121.19,552.72,120.7,549.51,120.7z"/>
	<path class="st2" d="M385.65,183.53c-1.59,0-3.04,0.35-4.35,1.04c-0.97,0.51-2.03,1.5-3.2,2.96v-3.47h-8.4v32.35h9.07v-11.19
		c0.9,0.93,1.92,1.63,3.06,2.1c1.14,0.47,2.4,0.7,3.79,0.7c2.85,0,5.21-1.02,7.08-3.07c1.87-2.06,2.8-5.03,2.8-8.93
		c0-3.53-0.86-6.5-2.57-8.89C391.21,184.73,388.78,183.53,385.65,183.53z M386.09,200.34c-0.71,0.87-1.58,1.3-2.63,1.3
		c-1.19,0-2.18-0.45-2.95-1.35c-0.78-0.9-1.17-2.27-1.17-4.13c0-2.01,0.38-3.47,1.14-4.37c0.76-0.9,1.72-1.35,2.87-1.35
		c1.06,0,1.96,0.45,2.69,1.34c0.74,0.89,1.11,2.28,1.11,4.18C387.15,198.02,386.79,199.48,386.09,200.34z"/>
	<path class="st1" d="M383.35,190.45c-1.15,0-2.11,0.45-2.87,1.35c-0.77,0.9-1.14,2.36-1.14,4.37c0,1.86,0.38,3.23,1.17,4.13
		c0.78,0.89,1.76,1.35,2.95,1.35c1.05,0,1.92-0.43,2.63-1.3c0.71-0.86,1.06-2.32,1.06-4.37c0-1.9-0.37-3.29-1.11-4.18
		C385.31,190.89,384.41,190.45,383.35,190.45z"/>
	<path class="st2" d="M428.87,185.63c-1.94-1.02-4.59-1.53-7.94-1.53c-4.13,0-7.37,1.14-9.72,3.4c-2.34,2.26-3.52,5.23-3.52,8.89
		c0,2.58,0.59,4.81,1.76,6.72c1.17,1.91,2.64,3.3,4.42,4.17c1.79,0.87,4.23,1.31,7.33,1.31c3.58,0,6.32-0.51,8.23-1.53
		c1.91-1.02,3.54-2.71,4.9-5.07l-8.85-0.81c-0.56,0.71-1.08,1.2-1.57,1.47c-0.79,0.45-1.63,0.66-2.52,0.66
		c-1.39,0-2.53-0.5-3.4-1.52c-0.62-0.71-1.01-1.78-1.17-3.23h18v-1.02c0-3.09-0.51-5.59-1.52-7.52
		C432.3,188.12,430.82,186.64,428.87,185.63z M416.85,194.28c0.14-1.4,0.49-2.45,1.03-3.16c0.86-1.13,2-1.7,3.43-1.7
		c1.24,0,2.23,0.38,2.99,1.13c0.75,0.75,1.22,1.99,1.4,3.73H416.85z"/>
	<path class="st1" d="M421.31,189.42c-1.43,0-2.57,0.57-3.43,1.7c-0.54,0.71-0.89,1.76-1.03,3.16h8.85
		c-0.18-1.74-0.65-2.98-1.4-3.73C423.54,189.8,422.55,189.42,421.31,189.42z"/>
	<path class="st2" d="M468.36,194.2c-1.45-0.6-3.68-1.07-6.66-1.41c-1.98-0.24-3.25-0.51-3.84-0.8c-0.59-0.29-0.88-0.72-0.88-1.3
		c0-0.51,0.23-0.95,0.69-1.31c0.46-0.36,1.21-0.54,2.22-0.54c1,0,1.85,0.24,2.56,0.71c0.52,0.35,0.88,0.9,1.11,1.66l8.52-0.85
		c-0.6-1.53-1.33-2.74-2.22-3.64c-0.89-0.9-2-1.56-3.33-1.99c-1.33-0.42-3.4-0.64-6.19-0.64c-2.65,0-4.76,0.28-6.33,0.83
		c-1.58,0.55-2.81,1.39-3.71,2.51c-0.9,1.11-1.35,2.45-1.35,3.99c0,1.42,0.41,2.67,1.25,3.77c0.83,1.1,1.85,1.88,3.07,2.35
		c1.21,0.47,3.38,0.96,6.5,1.51c2.09,0.37,3.37,0.68,3.87,0.93c0.67,0.35,1.01,0.85,1.01,1.5c0,0.57-0.26,1.05-0.77,1.43
		c-0.66,0.52-1.59,0.77-2.8,0.77c-1.11,0-1.99-0.23-2.65-0.68c-0.66-0.45-1.18-1.21-1.54-2.28l-8.92,0.85
		c0.52,2.24,1.69,3.98,3.5,5.2c1.82,1.22,4.87,1.83,9.14,1.83c3.03,0,5.42-0.37,7.19-1.14c1.75-0.75,3.04-1.77,3.86-3.05
		c0.82-1.28,1.23-2.6,1.23-3.95c0-1.34-0.38-2.57-1.16-3.68C470.94,195.66,469.82,194.8,468.36,194.2z"/>
	<path class="st2" d="M500.6,202.98c-0.74,0-1.25-0.26-1.54-0.75c-0.19-0.33-0.29-0.99-0.29-1.99v-8.32h4.94v-6.55h-4.94v-8.92
		l-9,4.61v4.31h-3.31v6.55h3.31v8.25c0,2.62,0.25,4.52,0.76,5.69c0.5,1.17,1.29,2.04,2.35,2.61c1.05,0.57,2.7,0.86,4.94,0.86
		c1.93,0,4-0.24,6.22-0.72l-0.66-6.2C502.19,202.79,501.27,202.98,500.6,202.98z"/>
	<path class="st2" d="M569.04,183.87c-1.71,0-3.14,0.28-4.3,0.83c-1.17,0.55-2.46,1.6-3.86,3.13c-0.69-1.31-1.58-2.3-2.68-2.96
		c-1.08-0.66-2.56-0.99-4.43-0.99c-1.74,0-3.22,0.3-4.45,0.9c-1.23,0.61-2.44,1.62-3.65,3.05v-3.42h-8.38v23.43h9v-11.96
		c0-1.78,0.33-3.06,0.99-3.84c0.66-0.78,1.51-1.17,2.54-1.17c0.63,0,1.18,0.18,1.66,0.54c0.47,0.36,0.8,0.84,1,1.42
		c0.11,0.37,0.17,1.06,0.17,2.09v12.91h9.01v-12.09c0-1.7,0.32-2.92,0.96-3.69c0.65-0.76,1.51-1.14,2.56-1.14
		c0.9,0,1.65,0.41,2.25,1.21c0.41,0.51,0.62,1.3,0.62,2.37v13.35h9v-14.72c0-3.18-0.7-5.51-2.11-7
		C573.52,184.62,571.55,183.87,569.04,183.87z"/>
	<path class="st2" d="M616.16,203.09v-10.35c0-1.11-0.22-2.26-0.65-3.48c-0.44-1.21-1.05-2.15-1.82-2.81
		c-1.08-0.96-2.45-1.59-4.08-1.89c-1.63-0.3-3.8-0.45-6.49-0.45c-1.68,0-3.24,0.13-4.68,0.38c-1.44,0.25-2.57,0.6-3.4,1.06
		c-1.15,0.63-2.03,1.38-2.64,2.24c-0.61,0.86-1.08,2.04-1.4,3.54l8.58,0.9c0.35-1.01,0.82-1.7,1.39-2.07
		c0.74-0.47,1.84-0.71,3.31-0.71c1.15,0,1.95,0.23,2.41,0.66c0.45,0.44,0.68,1.21,0.68,2.32c-1.12,0.44-2.18,0.8-3.17,1.07
		c-1,0.27-3.19,0.75-6.56,1.42c-2.81,0.56-4.73,1.41-5.78,2.56c-1.05,1.15-1.57,2.61-1.57,4.39c0,1.9,0.72,3.49,2.17,4.78
		c1.45,1.3,3.58,1.94,6.37,1.94c2.1,0,3.95-0.32,5.54-0.97c1.16-0.48,2.34-1.29,3.51-2.43c0.1,0.68,0.2,1.18,0.31,1.49
		c0.1,0.32,0.32,0.78,0.66,1.38h8.43c-0.48-0.97-0.78-1.77-0.92-2.4C616.24,205.05,616.16,204.19,616.16,203.09z M607.38,198.39
		c0,1.12-0.17,2.03-0.54,2.73c-0.36,0.69-0.97,1.29-1.83,1.78c-0.87,0.48-1.79,0.72-2.79,0.72c-0.96,0-1.68-0.23-2.18-0.67
		c-0.49-0.45-0.74-1.03-0.74-1.73c0-0.62,0.25-1.17,0.75-1.66c0.48-0.47,1.64-0.95,3.46-1.43c1.33-0.34,2.62-0.73,3.86-1.17V198.39z
		"/>
	<path class="st1" d="M600.06,199.55c-0.51,0.49-0.75,1.04-0.75,1.66c0,0.71,0.25,1.28,0.74,1.73c0.5,0.44,1.22,0.67,2.18,0.67
		c1,0,1.93-0.24,2.79-0.72c0.86-0.49,1.47-1.08,1.83-1.78c0.36-0.7,0.54-1.61,0.54-2.73v-1.44c-1.24,0.44-2.52,0.84-3.86,1.17
		C601.7,198.6,600.54,199.09,600.06,199.55z"/>
	<path class="st2" d="M649.2,184.37c-1.84,0-3.4,0.34-4.68,1.01c-1.28,0.67-2.55,1.78-3.8,3.34v-3.81h-8.37v23.43h8.99v-11.25
		c0-2.13,0.34-3.62,1.02-4.44c0.67-0.82,1.56-1.23,2.64-1.23c0.99,0,1.75,0.3,2.3,0.92c0.54,0.61,0.81,1.65,0.81,3.12v12.89h9.02
		v-14.9c0-3.09-0.7-5.37-2.1-6.85C653.63,185.12,651.68,184.37,649.2,184.37z"/>
	<path class="st2" d="M698.5,203.09v-10.35c0-1.11-0.22-2.26-0.65-3.48c-0.44-1.21-1.05-2.15-1.82-2.81
		c-1.08-0.96-2.45-1.59-4.08-1.89c-1.63-0.3-3.8-0.45-6.49-0.45c-1.68,0-3.24,0.13-4.68,0.38c-1.44,0.25-2.57,0.6-3.4,1.06
		c-1.15,0.63-2.03,1.38-2.64,2.24c-0.61,0.86-1.08,2.04-1.4,3.54l8.58,0.9c0.35-1.01,0.82-1.7,1.39-2.07
		c0.74-0.47,1.84-0.71,3.31-0.71c1.15,0,1.95,0.23,2.41,0.66c0.45,0.44,0.68,1.21,0.68,2.32c-1.12,0.44-2.18,0.8-3.17,1.07
		c-1,0.27-3.19,0.75-6.56,1.42c-2.81,0.56-4.73,1.41-5.78,2.56c-1.05,1.15-1.57,2.61-1.57,4.39c0,1.9,0.72,3.49,2.17,4.78
		c1.45,1.3,3.58,1.94,6.37,1.94c2.1,0,3.95-0.32,5.54-0.97c1.16-0.48,2.34-1.29,3.51-2.43c0.1,0.68,0.2,1.18,0.31,1.49
		c0.11,0.32,0.32,0.78,0.66,1.38h8.43c-0.48-0.97-0.78-1.77-0.92-2.4C698.58,205.05,698.5,204.19,698.5,203.09z M689.72,198.39
		c0,1.12-0.17,2.03-0.53,2.73c-0.36,0.69-0.97,1.29-1.83,1.78c-0.87,0.48-1.79,0.72-2.79,0.72c-0.96,0-1.68-0.23-2.18-0.67
		c-0.49-0.45-0.74-1.03-0.74-1.73c0-0.62,0.25-1.17,0.75-1.66c0.48-0.47,1.64-0.95,3.46-1.43c1.33-0.34,2.62-0.73,3.86-1.17V198.39z
		"/>
	<path class="st1" d="M682.4,199.55c-0.51,0.49-0.75,1.04-0.75,1.66c0,0.71,0.25,1.28,0.74,1.73c0.5,0.44,1.22,0.67,2.18,0.67
		c1,0,1.93-0.24,2.79-0.72c0.86-0.49,1.47-1.08,1.83-1.78c0.36-0.7,0.53-1.61,0.53-2.73v-1.44c-1.24,0.44-2.52,0.84-3.86,1.17
		C684.04,198.6,682.88,199.09,682.4,199.55z"/>
	<path class="st2" d="M826.98,184.37c-1.71,0-3.14,0.28-4.3,0.83c-1.17,0.55-2.46,1.6-3.86,3.13c-0.69-1.31-1.58-2.3-2.68-2.96
		c-1.08-0.66-2.56-0.99-4.43-0.99c-1.74,0-3.22,0.3-4.45,0.9c-1.23,0.61-2.44,1.62-3.65,3.05v-3.42h-8.38v23.43h9v-11.96
		c0-1.78,0.33-3.06,0.99-3.84c0.66-0.78,1.51-1.17,2.54-1.17c0.63,0,1.18,0.18,1.66,0.54c0.47,0.36,0.8,0.84,1,1.42
		c0.11,0.37,0.17,1.06,0.17,2.09v12.91h9.01v-12.09c0-1.7,0.32-2.92,0.96-3.69c0.65-0.76,1.51-1.14,2.56-1.14
		c0.9,0,1.65,0.41,2.25,1.21c0.41,0.51,0.62,1.3,0.62,2.36v13.35h9v-14.72c0-3.18-0.7-5.51-2.11-7
		C831.46,185.12,829.49,184.37,826.98,184.37z"/>
	<path class="st2" d="M909.15,184.37c-1.84,0-3.4,0.34-4.68,1.01c-1.28,0.67-2.55,1.78-3.8,3.34v-3.81h-8.37v23.43h8.99v-11.25
		c0-2.13,0.34-3.62,1.02-4.44c0.67-0.82,1.56-1.23,2.64-1.23c0.99,0,1.75,0.3,2.3,0.92c0.54,0.61,0.81,1.65,0.81,3.12v12.89h9.02
		v-14.9c0-3.09-0.7-5.37-2.1-6.85C913.58,185.12,911.63,184.37,909.15,184.37z"/>
	<path class="st2" d="M946.6,202.83c-0.74,0-1.25-0.26-1.54-0.75c-0.19-0.33-0.29-0.99-0.29-1.99v-8.32h4.94v-6.55h-4.94v-8.92
		l-9,4.61v4.31h-3.31v6.55h3.31v8.25c0,2.62,0.25,4.52,0.76,5.69c0.5,1.17,1.29,2.04,2.35,2.61c1.05,0.57,2.7,0.86,4.94,0.86
		c1.93,0,4-0.24,6.22-0.72l-0.66-6.21C948.19,202.63,947.26,202.83,946.6,202.83z"/>
	<path class="st2" d="M738.24,184.34h-8.41v3.46c-1.03-1.43-2.13-2.46-3.32-3.07c-1.18-0.62-2.68-0.93-4.51-0.93
		c-2.86,0-5.16,0.96-6.93,2.87c-1.76,1.92-2.64,4.69-2.64,8.35c0,3.18,0.69,5.75,2.05,7.7c1.93,2.73,4.46,4.1,7.59,4.1
		c1.6,0,3.1-0.37,4.48-1.1c0.88-0.48,1.76-1.24,2.64-2.28v3.55c0,1.72-0.32,2.93-0.96,3.62c-0.64,0.69-1.61,1.04-2.9,1.04
		c-1,0-1.83-0.23-2.49-0.69c-0.46-0.31-0.8-0.87-1.02-1.68l-8.71-0.99c-0.03,0.5-0.05,0.9-0.05,1.2c0,2.37,0.88,4.26,2.64,5.66
		c1.75,1.42,4.99,2.13,9.7,2.13c2.06,0,3.89-0.19,5.48-0.56c1.59-0.36,2.91-0.96,3.95-1.79c1.04-0.82,1.87-1.9,2.49-3.23
		c0.62-1.33,0.94-2.73,0.94-4.2l-0.02-1.04V184.34z M728.12,199.42c-0.75,0.84-1.69,1.27-2.81,1.27c-1.18,0-2.13-0.41-2.85-1.23
		c-0.72-0.81-1.08-2.07-1.08-3.77c0-1.92,0.35-3.31,1.03-4.13c0.68-0.83,1.6-1.24,2.74-1.24c1.15,0,2.12,0.45,2.91,1.35
		c0.79,0.9,1.19,2.21,1.19,3.92C729.26,197.29,728.88,198.57,728.12,199.42z"/>
	<path class="st1" d="M725.15,190.32c-1.14,0-2.06,0.41-2.74,1.24c-0.68,0.83-1.03,2.21-1.03,4.13c0,1.69,0.36,2.95,1.08,3.77
		c0.72,0.81,1.67,1.23,2.85,1.23c1.11,0,2.06-0.43,2.81-1.27c0.76-0.85,1.14-2.13,1.14-3.83c0-1.71-0.4-3.01-1.19-3.92
		C727.27,190.77,726.3,190.32,725.15,190.32z"/>
	<path class="st2" d="M774.58,185.63c-1.94-1.02-4.59-1.53-7.94-1.53c-4.13,0-7.37,1.14-9.72,3.4c-2.34,2.26-3.52,5.23-3.52,8.89
		c0,2.58,0.59,4.81,1.76,6.72c1.17,1.91,2.64,3.3,4.42,4.17c1.79,0.87,4.23,1.31,7.33,1.31c3.58,0,6.32-0.51,8.23-1.53
		c1.91-1.02,3.54-2.71,4.9-5.07l-8.85-0.81c-0.56,0.71-1.08,1.2-1.57,1.47c-0.79,0.45-1.63,0.66-2.52,0.66
		c-1.39,0-2.53-0.5-3.4-1.52c-0.62-0.71-1.01-1.78-1.17-3.23h18v-1.02c0-3.09-0.51-5.59-1.52-7.52
		C778.01,188.12,776.52,186.64,774.58,185.63z M762.56,194.28c0.14-1.4,0.49-2.45,1.03-3.16c0.86-1.13,2-1.7,3.43-1.7
		c1.24,0,2.23,0.38,2.99,1.13c0.75,0.75,1.22,1.99,1.4,3.73H762.56z"/>
	<path class="st1" d="M767.02,189.42c-1.43,0-2.57,0.57-3.43,1.7c-0.54,0.71-0.89,1.76-1.03,3.16h8.85
		c-0.18-1.74-0.65-2.98-1.4-3.73C769.25,189.8,768.26,189.42,767.02,189.42z"/>
	<path class="st2" d="M871.15,185.63c-1.94-1.02-4.59-1.53-7.94-1.53c-4.13,0-7.37,1.14-9.72,3.4c-2.34,2.26-3.52,5.23-3.52,8.89
		c0,2.58,0.59,4.81,1.76,6.72c1.17,1.91,2.64,3.3,4.42,4.17c1.79,0.87,4.23,1.31,7.33,1.31c3.58,0,6.32-0.51,8.23-1.53
		c1.91-1.02,3.54-2.71,4.9-5.07l-8.85-0.81c-0.56,0.71-1.08,1.2-1.57,1.47c-0.79,0.45-1.63,0.66-2.52,0.66
		c-1.39,0-2.53-0.5-3.4-1.52c-0.62-0.71-1.01-1.78-1.17-3.23h18v-1.02c0-3.09-0.51-5.59-1.52-7.52
		C874.58,188.12,873.09,186.64,871.15,185.63z M859.13,194.28c0.14-1.4,0.49-2.45,1.03-3.16c0.86-1.13,2-1.7,3.43-1.7
		c1.24,0,2.23,0.38,2.99,1.13c0.75,0.75,1.22,1.99,1.4,3.73H859.13z"/>
	<path class="st1" d="M863.59,189.42c-1.43,0-2.57,0.57-3.43,1.7c-0.54,0.71-0.89,1.76-1.03,3.16h8.85
		c-0.18-1.74-0.65-2.98-1.4-3.73C865.82,189.8,864.82,189.42,863.59,189.42z"/>
	<path class="st2" d="M418.22,69.12c-2.31,2.54-5.72,3.8-10.23,3.8c-4.64,0-8.24-1.56-10.82-4.71c-2.56-3.14-3.85-8.93-3.85-17.4
		c0-6.84,1.08-11.85,3.23-15.05c2.84-4.3,6.94-6.45,12.27-6.45c2.36,0,4.49,0.48,6.41,1.45c1.9,0.98,3.52,2.36,4.83,4.16
		c0.8,1.08,1.56,2.79,2.29,5.12l20.82-4.64c-2.66-8.05-6.75-14.01-12.26-17.9c-5.5-3.89-13.05-5.83-22.66-5.83
		c-12.27,0-21.78,3.39-28.49,10.18c-6.71,6.77-10.07,16.48-10.07,29.11c0,9.47,1.92,17.23,5.72,23.3
		c3.82,6.07,8.37,10.32,13.62,12.73c5.24,2.4,12.02,3.61,20.32,3.61c6.82,0,12.45-0.98,16.87-2.97c4.42-1.97,8.14-4.9,11.12-8.79
		c2.98-3.89,5.17-8.72,6.55-14.51l-20.66-6.25C422.2,62.92,420.53,66.59,418.22,69.12z"/>
	<path class="st2" d="M533.63,50.87c0-12.27-3.45-21.83-10.3-28.63c-6.87-6.82-16.66-10.23-29.36-10.23
		c-12.38,0-22.04,3.47-28.99,10.41c-6.93,6.93-10.41,16.62-10.41,29.07c0,8.92,1.76,16.34,5.26,22.27
		c3.52,5.93,8.08,10.27,13.71,13.02c5.65,2.74,12.77,4.1,21.37,4.1c8.47,0,15.52-1.58,21.21-4.76c5.67-3.18,10-7.62,13-13.32
		C532.12,67.1,533.63,59.79,533.63,50.87z M505.89,68.31c-2.77,3.29-6.7,4.94-11.76,4.94c-4.92,0-8.83-1.69-11.69-5.05
		c-2.86-3.37-4.28-8.9-4.28-16.61c0-7.76,1.44-13.34,4.32-16.7c2.88-3.37,6.7-5.04,11.44-5.04c4.97,0,8.9,1.65,11.79,4.95
		c2.9,3.32,4.35,8.56,4.35,15.76C510.06,59.09,508.66,65.01,505.89,68.31z"/>
	<path class="st1" d="M493.92,29.86c-4.74,0-8.56,1.67-11.44,5.04c-2.88,3.36-4.32,8.94-4.32,16.7c0,7.71,1.42,13.23,4.28,16.61
		c2.86,3.36,6.77,5.05,11.69,5.05c5.06,0,8.99-1.65,11.76-4.94c2.77-3.3,4.17-9.22,4.17-17.74c0-7.19-1.46-12.43-4.35-15.76
		C502.82,31.51,498.89,29.86,493.92,29.86z"/>
	<polygon class="st2" points="566,47.4 594.57,89.28 616.8,89.28 616.8,13 594.57,13 594.57,55.2 565.86,13 543.83,13 543.83,89.28 
		566,89.28 	"/>
	<path class="st3" d="M694.16,93.54c3.21,2.2,6.48,4.1,9.78,5.68l6.55-13.21c-2.29-1-4.12-1.88-5.47-2.65
		c-0.91-0.52-2.83-1.81-5.78-3.85c5.54-6.77,8.33-15.79,8.33-27.05c0-12.67-3.45-22.4-10.34-29.2c-6.89-6.8-16.66-10.19-29.32-10.19
		c-12.42,0-22.08,3.48-29.01,10.43c-6.93,6.96-10.39,16.71-10.39,29.27c0,12.95,3.96,22.98,11.86,30.12
		c6.7,6.04,15.84,9.06,27.42,9.06c7.85,0,14.37-1.12,19.57-3.37C688.67,89.66,690.93,91.33,694.16,93.54z M681.2,67.43
		c-0.92-0.58-1.8-1.15-2.59-1.7c-3.38-2.36-5.63-3.82-6.79-4.37c-1.17-0.57-2.79-1.03-4.87-1.42l-3.69,8.49
		c4.26,1.7,7.39,3.5,9.36,5.42c-1.42,0.3-2.93,0.46-4.53,0.46c-4.96,0-8.86-1.69-11.7-5.04c-2.84-3.37-4.26-9.22-4.26-17.53
		c0-7.16,1.46-12.41,4.37-15.77c2.91-3.37,6.71-5.04,11.39-5.04c5.04,0,8.99,1.63,11.85,4.94c2.86,3.3,4.3,8.79,4.3,16.5
		C684.02,59.05,683.08,64.07,681.2,67.43z"/>
	<path class="st2" d="M724.99,79.91c2.45,2.84,5.15,5.04,8.1,6.59c2.95,1.55,6.61,2.58,10.99,3.09c4.39,0.53,8.44,0.78,12.15,0.78
		c6.43,0,11.92-0.85,16.5-2.54c3.3-1.22,6.45-3.32,9.45-6.32c3-3,5.21-6.52,6.61-10.51c1.41-4.02,2.12-8.26,2.12-12.77V12.74h-23.53
		v46.57c0,4.23-1.16,7.51-3.45,9.8c-2.31,2.31-5.51,3.46-9.55,3.46c-4.1,0-7.3-1.17-9.61-3.51c-2.29-2.33-3.45-5.58-3.45-9.75V12.74
		h-23.53v45.48c0,3.75,0.73,8.05,2.18,12.89C720.87,74.14,722.54,77.07,724.99,79.91z"/>
	<polygon class="st2" points="866.3,72 825.61,72 825.61,56.98 862.29,56.98 862.29,41.42 825.61,41.42 825.61,29.29 865.15,29.29 
		865.15,13 801.99,13 801.99,89.28 866.3,89.28 	"/>
	<path class="st2" d="M899.09,58.63h2.08c2.15,0,4.09,0.59,5.77,1.76c1.26,0.91,2.68,2.88,4.28,5.88l12.59,23.32h26.64l-11.4-22.11
		c-0.55-1.12-1.65-2.68-3.3-4.74c-1.65-2.04-2.91-3.37-3.77-4c-1.29-0.94-3.34-1.88-6.15-2.83c3.5-0.78,6.25-1.79,8.28-3
		c3.14-1.92,5.63-4.41,7.44-7.48c1.79-3.08,2.7-6.71,2.7-10.96c0-4.85-1.17-8.97-3.53-12.34c-2.36-3.39-5.47-5.7-9.33-6.94
		c-3.84-1.26-9.41-1.88-16.7-1.88h-39.29v76.28h23.67V58.63z M898.11,26.15h10.35c4.3,0,7.23,0.66,8.79,1.99
		c1.56,1.32,2.35,3.2,2.35,5.67c0,1.67-0.5,3.14-1.47,4.42c-0.99,1.28-2.27,2.08-3.84,2.4c-3.09,0.69-5.17,1.03-6.24,1.03h-9.95
		V26.15z"/>
	<path class="st1" d="M914.29,40.63c1.56-0.32,2.84-1.12,3.84-2.4c0.98-1.28,1.47-2.76,1.47-4.42c0-2.47-0.78-4.35-2.35-5.67
		c-1.56-1.33-4.49-1.99-8.79-1.99h-10.35v15.51h9.95C909.12,41.66,911.2,41.32,914.29,40.63z"/>
</g>
</svg>

